<?xml version="1.0" encoding="utf-8" standalone="no"?>
<!DOCTYPE svg PUBLIC "-//W3C//DTD SVG 1.1//EN"
  "http://www.w3.org/Graphics/SVG/1.1/DTD/svg11.dtd">
<!-- Created with matplotlib (https://matplotlib.org/) -->
<svg height="390.846563pt" version="1.1" viewBox="0 0 831.885 390.846563" width="831.885pt" xmlns="http://www.w3.org/2000/svg" xmlns:xlink="http://www.w3.org/1999/xlink">
 <defs>
  <style type="text/css">
*{stroke-linecap:butt;stroke-linejoin:round;}
  </style>
 </defs>
 <g id="figure_1">
  <g id="patch_1">
   <path d="M 0 390.846563 
L 831.885 390.846563 
L 831.885 0 
L 0 0 
z
" style="fill:#ffffff;"/>
  </g>
  <g id="axes_1">
   <g id="patch_2">
    <path d="M 50.685 348.876562 
L 405.775909 348.876562 
L 405.775909 22.716563 
L 50.685 22.716563 
z
" style="fill:#ffffff;"/>
   </g>
   <g id="line2d_1">
    <path clip-path="url(#p4dd7483d83)" d="M 50.685 168.569549 
L 74.812183 273.725949 
L 88.925681 297.491114 
L 98.939367 306.372653 
L 106.706585 308.347895 
L 113.052864 310.641696 
L 118.418567 312.568936 
L 123.06655 310.738229 
L 127.166362 313.908544 
L 130.833768 312.348505 
L 134.151341 314.958614 
L 139.966187 314.329454 
L 142.54575 313.277889 
L 147.193733 312.76045 
L 149.303965 315.04161 
L 153.175526 313.917864 
L 156.659248 314.808411 
L 161.307231 314.053559 
L 164.093371 312.67525 
L 167.894398 314.446104 
L 172.392022 314.743893 
L 175.420728 315.610153 
L 179.088135 316.418178 
L 183.187946 317.592684 
L 186.152134 316.115624 
L 190.172926 316.280975 
L 193.776987 317.863955 
L 197.558332 316.97995 
L 200.96885 315.59136 
L 204.496745 317.497872 
L 208.080175 315.983766 
L 211.671829 317.732576 
L 215.236708 318.215418 
L 219.027112 318.023788 
L 222.444996 316.811942 
L 226.012091 318.079761 
L 229.656887 314.540921 
L 233.324294 315.215156 
L 236.973375 316.458962 
L 240.425661 315.124985 
L 244.108003 315.459412 
L 247.681206 315.578796 
L 251.251451 316.645552 
L 254.886004 315.295424 
L 258.444774 316.35347 
L 261.996257 315.987729 
L 265.583182 316.249812 
L 269.163459 316.708053 
L 272.765375 314.087765 
L 276.350088 315.022651 
L 279.937568 313.793954 
L 283.537693 313.702621 
L 287.114064 312.972744 
L 290.71108 313.250613 
L 294.290297 310.538609 
L 297.852644 312.698824 
L 301.448237 310.51007 
L 305.035324 309.705669 
L 308.625605 308.034282 
L 312.204457 306.261999 
L 315.776733 307.145488 
L 319.373766 304.134556 
L 322.95602 306.651654 
L 326.532625 303.254847 
L 330.118108 300.354926 
L 333.697958 299.977483 
L 337.278158 299.4715 
L 340.867818 299.672516 
L 344.446716 297.414741 
L 348.032763 296.030371 
L 351.615898 294.131705 
L 355.197465 290.371184 
L 358.780234 290.924567 
L 362.362797 284.608145 
L 365.945103 277.001963 
L 369.527607 268.790491 
L 373.110719 259.367362 
L 376.691493 249.928806 
L 380.275668 239.501461 
L 383.858835 226.02096 
L 387.441501 207.422325 
L 391.022814 181.153067 
L 394.606223 149.334479 
L 398.189111 118.426003 
L 401.770935 96.361407 
L 405.353435 121.034975 
" style="fill:none;stroke:#000000;stroke-linecap:square;stroke-opacity:0.25;stroke-width:5;"/>
   </g>
   <g id="matplotlib.axis_1">
    <g id="xtick_1">
     <g id="line2d_2">
      <defs>
       <path d="M 0 0 
L 0 3.5 
" id="m4abd8e331c" style="stroke:#000000;stroke-width:0.8;"/>
      </defs>
      <g>
       <use style="stroke:#000000;stroke-width:0.8;" x="50.685" xlink:href="#m4abd8e331c" y="348.876562"/>
      </g>
     </g>
     <g id="text_1">
      <!-- $\mathdefault{10^{0}}$ -->
      <defs>
       <path d="M 12.40625 8.296875 
L 28.515625 8.296875 
L 28.515625 63.921875 
L 10.984375 60.40625 
L 10.984375 69.390625 
L 28.421875 72.90625 
L 38.28125 72.90625 
L 38.28125 8.296875 
L 54.390625 8.296875 
L 54.390625 0 
L 12.40625 0 
z
" id="DejaVuSans-49"/>
       <path d="M 31.78125 66.40625 
Q 24.171875 66.40625 20.328125 58.90625 
Q 16.5 51.421875 16.5 36.375 
Q 16.5 21.390625 20.328125 13.890625 
Q 24.171875 6.390625 31.78125 6.390625 
Q 39.453125 6.390625 43.28125 13.890625 
Q 47.125 21.390625 47.125 36.375 
Q 47.125 51.421875 43.28125 58.90625 
Q 39.453125 66.40625 31.78125 66.40625 
z
M 31.78125 74.21875 
Q 44.046875 74.21875 50.515625 64.515625 
Q 56.984375 54.828125 56.984375 36.375 
Q 56.984375 17.96875 50.515625 8.265625 
Q 44.046875 -1.421875 31.78125 -1.421875 
Q 19.53125 -1.421875 13.0625 8.265625 
Q 6.59375 17.96875 6.59375 36.375 
Q 6.59375 54.828125 13.0625 64.515625 
Q 19.53125 74.21875 31.78125 74.21875 
z
" id="DejaVuSans-48"/>
      </defs>
      <g transform="translate(38.365 366.514375)scale(0.14 -0.14)">
       <use transform="translate(0 0.765625)" xlink:href="#DejaVuSans-49"/>
       <use transform="translate(63.623047 0.765625)" xlink:href="#DejaVuSans-48"/>
       <use transform="translate(128.203125 39.046875)scale(0.7)" xlink:href="#DejaVuSans-48"/>
      </g>
     </g>
    </g>
    <g id="xtick_2">
     <g id="line2d_3">
      <g>
       <use style="stroke:#000000;stroke-width:0.8;" x="130.833768" xlink:href="#m4abd8e331c" y="348.876562"/>
      </g>
     </g>
     <g id="text_2">
      <!-- $\mathdefault{10^{1}}$ -->
      <g transform="translate(118.513768 366.514375)scale(0.14 -0.14)">
       <use transform="translate(0 0.684375)" xlink:href="#DejaVuSans-49"/>
       <use transform="translate(63.623047 0.684375)" xlink:href="#DejaVuSans-48"/>
       <use transform="translate(128.203125 38.965625)scale(0.7)" xlink:href="#DejaVuSans-49"/>
      </g>
     </g>
    </g>
    <g id="xtick_3">
     <g id="line2d_4">
      <g>
       <use style="stroke:#000000;stroke-width:0.8;" x="210.982536" xlink:href="#m4abd8e331c" y="348.876562"/>
      </g>
     </g>
     <g id="text_3">
      <!-- $\mathdefault{10^{2}}$ -->
      <defs>
       <path d="M 19.1875 8.296875 
L 53.609375 8.296875 
L 53.609375 0 
L 7.328125 0 
L 7.328125 8.296875 
Q 12.9375 14.109375 22.625 23.890625 
Q 32.328125 33.6875 34.8125 36.53125 
Q 39.546875 41.84375 41.421875 45.53125 
Q 43.3125 49.21875 43.3125 52.78125 
Q 43.3125 58.59375 39.234375 62.25 
Q 35.15625 65.921875 28.609375 65.921875 
Q 23.96875 65.921875 18.8125 64.3125 
Q 13.671875 62.703125 7.8125 59.421875 
L 7.8125 69.390625 
Q 13.765625 71.78125 18.9375 73 
Q 24.125 74.21875 28.421875 74.21875 
Q 39.75 74.21875 46.484375 68.546875 
Q 53.21875 62.890625 53.21875 53.421875 
Q 53.21875 48.921875 51.53125 44.890625 
Q 49.859375 40.875 45.40625 35.40625 
Q 44.1875 33.984375 37.640625 27.21875 
Q 31.109375 20.453125 19.1875 8.296875 
z
" id="DejaVuSans-50"/>
      </defs>
      <g transform="translate(198.662536 366.514375)scale(0.14 -0.14)">
       <use transform="translate(0 0.765625)" xlink:href="#DejaVuSans-49"/>
       <use transform="translate(63.623047 0.765625)" xlink:href="#DejaVuSans-48"/>
       <use transform="translate(128.203125 39.046875)scale(0.7)" xlink:href="#DejaVuSans-50"/>
      </g>
     </g>
    </g>
    <g id="xtick_4">
     <g id="line2d_5">
      <g>
       <use style="stroke:#000000;stroke-width:0.8;" x="291.131304" xlink:href="#m4abd8e331c" y="348.876562"/>
      </g>
     </g>
     <g id="text_4">
      <!-- $\mathdefault{10^{3}}$ -->
      <defs>
       <path d="M 40.578125 39.3125 
Q 47.65625 37.796875 51.625 33 
Q 55.609375 28.21875 55.609375 21.1875 
Q 55.609375 10.40625 48.1875 4.484375 
Q 40.765625 -1.421875 27.09375 -1.421875 
Q 22.515625 -1.421875 17.65625 -0.515625 
Q 12.796875 0.390625 7.625 2.203125 
L 7.625 11.71875 
Q 11.71875 9.328125 16.59375 8.109375 
Q 21.484375 6.890625 26.8125 6.890625 
Q 36.078125 6.890625 40.9375 10.546875 
Q 45.796875 14.203125 45.796875 21.1875 
Q 45.796875 27.640625 41.28125 31.265625 
Q 36.765625 34.90625 28.71875 34.90625 
L 20.21875 34.90625 
L 20.21875 43.015625 
L 29.109375 43.015625 
Q 36.375 43.015625 40.234375 45.921875 
Q 44.09375 48.828125 44.09375 54.296875 
Q 44.09375 59.90625 40.109375 62.90625 
Q 36.140625 65.921875 28.71875 65.921875 
Q 24.65625 65.921875 20.015625 65.03125 
Q 15.375 64.15625 9.8125 62.3125 
L 9.8125 71.09375 
Q 15.4375 72.65625 20.34375 73.4375 
Q 25.25 74.21875 29.59375 74.21875 
Q 40.828125 74.21875 47.359375 69.109375 
Q 53.90625 64.015625 53.90625 55.328125 
Q 53.90625 49.265625 50.4375 45.09375 
Q 46.96875 40.921875 40.578125 39.3125 
z
" id="DejaVuSans-51"/>
      </defs>
      <g transform="translate(278.811304 366.514375)scale(0.14 -0.14)">
       <use transform="translate(0 0.765625)" xlink:href="#DejaVuSans-49"/>
       <use transform="translate(63.623047 0.765625)" xlink:href="#DejaVuSans-48"/>
       <use transform="translate(128.203125 39.046875)scale(0.7)" xlink:href="#DejaVuSans-51"/>
      </g>
     </g>
    </g>
    <g id="xtick_5">
     <g id="line2d_6">
      <g>
       <use style="stroke:#000000;stroke-width:0.8;" x="371.280072" xlink:href="#m4abd8e331c" y="348.876562"/>
      </g>
     </g>
     <g id="text_5">
      <!-- $\mathdefault{10^{4}}$ -->
      <defs>
       <path d="M 37.796875 64.3125 
L 12.890625 25.390625 
L 37.796875 25.390625 
z
M 35.203125 72.90625 
L 47.609375 72.90625 
L 47.609375 25.390625 
L 58.015625 25.390625 
L 58.015625 17.1875 
L 47.609375 17.1875 
L 47.609375 0 
L 37.796875 0 
L 37.796875 17.1875 
L 4.890625 17.1875 
L 4.890625 26.703125 
z
" id="DejaVuSans-52"/>
      </defs>
      <g transform="translate(358.960072 366.514375)scale(0.14 -0.14)">
       <use transform="translate(0 0.684375)" xlink:href="#DejaVuSans-49"/>
       <use transform="translate(63.623047 0.684375)" xlink:href="#DejaVuSans-48"/>
       <use transform="translate(128.203125 38.965625)scale(0.7)" xlink:href="#DejaVuSans-52"/>
      </g>
     </g>
    </g>
    <g id="xtick_6">
     <g id="line2d_7">
      <defs>
       <path d="M 0 0 
L 0 2 
" id="m4c942c31d8" style="stroke:#000000;stroke-width:0.6;"/>
      </defs>
      <g>
       <use style="stroke:#000000;stroke-width:0.6;" x="74.812183" xlink:href="#m4c942c31d8" y="348.876562"/>
      </g>
     </g>
    </g>
    <g id="xtick_7">
     <g id="line2d_8">
      <g>
       <use style="stroke:#000000;stroke-width:0.6;" x="88.925681" xlink:href="#m4c942c31d8" y="348.876562"/>
      </g>
     </g>
    </g>
    <g id="xtick_8">
     <g id="line2d_9">
      <g>
       <use style="stroke:#000000;stroke-width:0.6;" x="98.939367" xlink:href="#m4c942c31d8" y="348.876562"/>
      </g>
     </g>
    </g>
    <g id="xtick_9">
     <g id="line2d_10">
      <g>
       <use style="stroke:#000000;stroke-width:0.6;" x="106.706585" xlink:href="#m4c942c31d8" y="348.876562"/>
      </g>
     </g>
    </g>
    <g id="xtick_10">
     <g id="line2d_11">
      <g>
       <use style="stroke:#000000;stroke-width:0.6;" x="113.052864" xlink:href="#m4c942c31d8" y="348.876562"/>
      </g>
     </g>
    </g>
    <g id="xtick_11">
     <g id="line2d_12">
      <g>
       <use style="stroke:#000000;stroke-width:0.6;" x="118.418567" xlink:href="#m4c942c31d8" y="348.876562"/>
      </g>
     </g>
    </g>
    <g id="xtick_12">
     <g id="line2d_13">
      <g>
       <use style="stroke:#000000;stroke-width:0.6;" x="123.06655" xlink:href="#m4c942c31d8" y="348.876562"/>
      </g>
     </g>
    </g>
    <g id="xtick_13">
     <g id="line2d_14">
      <g>
       <use style="stroke:#000000;stroke-width:0.6;" x="127.166362" xlink:href="#m4c942c31d8" y="348.876562"/>
      </g>
     </g>
    </g>
    <g id="xtick_14">
     <g id="line2d_15">
      <g>
       <use style="stroke:#000000;stroke-width:0.6;" x="154.960951" xlink:href="#m4c942c31d8" y="348.876562"/>
      </g>
     </g>
    </g>
    <g id="xtick_15">
     <g id="line2d_16">
      <g>
       <use style="stroke:#000000;stroke-width:0.6;" x="169.074449" xlink:href="#m4c942c31d8" y="348.876562"/>
      </g>
     </g>
    </g>
    <g id="xtick_16">
     <g id="line2d_17">
      <g>
       <use style="stroke:#000000;stroke-width:0.6;" x="179.088135" xlink:href="#m4c942c31d8" y="348.876562"/>
      </g>
     </g>
    </g>
    <g id="xtick_17">
     <g id="line2d_18">
      <g>
       <use style="stroke:#000000;stroke-width:0.6;" x="186.855353" xlink:href="#m4c942c31d8" y="348.876562"/>
      </g>
     </g>
    </g>
    <g id="xtick_18">
     <g id="line2d_19">
      <g>
       <use style="stroke:#000000;stroke-width:0.6;" x="193.201632" xlink:href="#m4c942c31d8" y="348.876562"/>
      </g>
     </g>
    </g>
    <g id="xtick_19">
     <g id="line2d_20">
      <g>
       <use style="stroke:#000000;stroke-width:0.6;" x="198.567335" xlink:href="#m4c942c31d8" y="348.876562"/>
      </g>
     </g>
    </g>
    <g id="xtick_20">
     <g id="line2d_21">
      <g>
       <use style="stroke:#000000;stroke-width:0.6;" x="203.215318" xlink:href="#m4c942c31d8" y="348.876562"/>
      </g>
     </g>
    </g>
    <g id="xtick_21">
     <g id="line2d_22">
      <g>
       <use style="stroke:#000000;stroke-width:0.6;" x="207.31513" xlink:href="#m4c942c31d8" y="348.876562"/>
      </g>
     </g>
    </g>
    <g id="xtick_22">
     <g id="line2d_23">
      <g>
       <use style="stroke:#000000;stroke-width:0.6;" x="235.109719" xlink:href="#m4c942c31d8" y="348.876562"/>
      </g>
     </g>
    </g>
    <g id="xtick_23">
     <g id="line2d_24">
      <g>
       <use style="stroke:#000000;stroke-width:0.6;" x="249.223217" xlink:href="#m4c942c31d8" y="348.876562"/>
      </g>
     </g>
    </g>
    <g id="xtick_24">
     <g id="line2d_25">
      <g>
       <use style="stroke:#000000;stroke-width:0.6;" x="259.236903" xlink:href="#m4c942c31d8" y="348.876562"/>
      </g>
     </g>
    </g>
    <g id="xtick_25">
     <g id="line2d_26">
      <g>
       <use style="stroke:#000000;stroke-width:0.6;" x="267.004121" xlink:href="#m4c942c31d8" y="348.876562"/>
      </g>
     </g>
    </g>
    <g id="xtick_26">
     <g id="line2d_27">
      <g>
       <use style="stroke:#000000;stroke-width:0.6;" x="273.3504" xlink:href="#m4c942c31d8" y="348.876562"/>
      </g>
     </g>
    </g>
    <g id="xtick_27">
     <g id="line2d_28">
      <g>
       <use style="stroke:#000000;stroke-width:0.6;" x="278.716103" xlink:href="#m4c942c31d8" y="348.876562"/>
      </g>
     </g>
    </g>
    <g id="xtick_28">
     <g id="line2d_29">
      <g>
       <use style="stroke:#000000;stroke-width:0.6;" x="283.364086" xlink:href="#m4c942c31d8" y="348.876562"/>
      </g>
     </g>
    </g>
    <g id="xtick_29">
     <g id="line2d_30">
      <g>
       <use style="stroke:#000000;stroke-width:0.6;" x="287.463898" xlink:href="#m4c942c31d8" y="348.876562"/>
      </g>
     </g>
    </g>
    <g id="xtick_30">
     <g id="line2d_31">
      <g>
       <use style="stroke:#000000;stroke-width:0.6;" x="315.258488" xlink:href="#m4c942c31d8" y="348.876562"/>
      </g>
     </g>
    </g>
    <g id="xtick_31">
     <g id="line2d_32">
      <g>
       <use style="stroke:#000000;stroke-width:0.6;" x="329.371985" xlink:href="#m4c942c31d8" y="348.876562"/>
      </g>
     </g>
    </g>
    <g id="xtick_32">
     <g id="line2d_33">
      <g>
       <use style="stroke:#000000;stroke-width:0.6;" x="339.385671" xlink:href="#m4c942c31d8" y="348.876562"/>
      </g>
     </g>
    </g>
    <g id="xtick_33">
     <g id="line2d_34">
      <g>
       <use style="stroke:#000000;stroke-width:0.6;" x="347.152889" xlink:href="#m4c942c31d8" y="348.876562"/>
      </g>
     </g>
    </g>
    <g id="xtick_34">
     <g id="line2d_35">
      <g>
       <use style="stroke:#000000;stroke-width:0.6;" x="353.499168" xlink:href="#m4c942c31d8" y="348.876562"/>
      </g>
     </g>
    </g>
    <g id="xtick_35">
     <g id="line2d_36">
      <g>
       <use style="stroke:#000000;stroke-width:0.6;" x="358.864871" xlink:href="#m4c942c31d8" y="348.876562"/>
      </g>
     </g>
    </g>
    <g id="xtick_36">
     <g id="line2d_37">
      <g>
       <use style="stroke:#000000;stroke-width:0.6;" x="363.512854" xlink:href="#m4c942c31d8" y="348.876562"/>
      </g>
     </g>
    </g>
    <g id="xtick_37">
     <g id="line2d_38">
      <g>
       <use style="stroke:#000000;stroke-width:0.6;" x="367.612666" xlink:href="#m4c942c31d8" y="348.876562"/>
      </g>
     </g>
    </g>
    <g id="xtick_38">
     <g id="line2d_39">
      <g>
       <use style="stroke:#000000;stroke-width:0.6;" x="395.407256" xlink:href="#m4c942c31d8" y="348.876562"/>
      </g>
     </g>
    </g>
    <g id="text_6">
     <!-- Distance between elements -->
     <defs>
      <path d="M 19.671875 64.796875 
L 19.671875 8.109375 
L 31.59375 8.109375 
Q 46.6875 8.109375 53.6875 14.9375 
Q 60.6875 21.78125 60.6875 36.53125 
Q 60.6875 51.171875 53.6875 57.984375 
Q 46.6875 64.796875 31.59375 64.796875 
z
M 9.8125 72.90625 
L 30.078125 72.90625 
Q 51.265625 72.90625 61.171875 64.09375 
Q 71.09375 55.28125 71.09375 36.53125 
Q 71.09375 17.671875 61.125 8.828125 
Q 51.171875 0 30.078125 0 
L 9.8125 0 
z
" id="DejaVuSans-68"/>
      <path d="M 9.421875 54.6875 
L 18.40625 54.6875 
L 18.40625 0 
L 9.421875 0 
z
M 9.421875 75.984375 
L 18.40625 75.984375 
L 18.40625 64.59375 
L 9.421875 64.59375 
z
" id="DejaVuSans-105"/>
      <path d="M 44.28125 53.078125 
L 44.28125 44.578125 
Q 40.484375 46.53125 36.375 47.5 
Q 32.28125 48.484375 27.875 48.484375 
Q 21.1875 48.484375 17.84375 46.4375 
Q 14.5 44.390625 14.5 40.28125 
Q 14.5 37.15625 16.890625 35.375 
Q 19.28125 33.59375 26.515625 31.984375 
L 29.59375 31.296875 
Q 39.15625 29.25 43.1875 25.515625 
Q 47.21875 21.78125 47.21875 15.09375 
Q 47.21875 7.46875 41.1875 3.015625 
Q 35.15625 -1.421875 24.609375 -1.421875 
Q 20.21875 -1.421875 15.453125 -0.5625 
Q 10.6875 0.296875 5.421875 2 
L 5.421875 11.28125 
Q 10.40625 8.6875 15.234375 7.390625 
Q 20.0625 6.109375 24.8125 6.109375 
Q 31.15625 6.109375 34.5625 8.28125 
Q 37.984375 10.453125 37.984375 14.40625 
Q 37.984375 18.0625 35.515625 20.015625 
Q 33.0625 21.96875 24.703125 23.78125 
L 21.578125 24.515625 
Q 13.234375 26.265625 9.515625 29.90625 
Q 5.8125 33.546875 5.8125 39.890625 
Q 5.8125 47.609375 11.28125 51.796875 
Q 16.75 56 26.8125 56 
Q 31.78125 56 36.171875 55.265625 
Q 40.578125 54.546875 44.28125 53.078125 
z
" id="DejaVuSans-115"/>
      <path d="M 18.3125 70.21875 
L 18.3125 54.6875 
L 36.8125 54.6875 
L 36.8125 47.703125 
L 18.3125 47.703125 
L 18.3125 18.015625 
Q 18.3125 11.328125 20.140625 9.421875 
Q 21.96875 7.515625 27.59375 7.515625 
L 36.8125 7.515625 
L 36.8125 0 
L 27.59375 0 
Q 17.1875 0 13.234375 3.875 
Q 9.28125 7.765625 9.28125 18.015625 
L 9.28125 47.703125 
L 2.6875 47.703125 
L 2.6875 54.6875 
L 9.28125 54.6875 
L 9.28125 70.21875 
z
" id="DejaVuSans-116"/>
      <path d="M 34.28125 27.484375 
Q 23.390625 27.484375 19.1875 25 
Q 14.984375 22.515625 14.984375 16.5 
Q 14.984375 11.71875 18.140625 8.90625 
Q 21.296875 6.109375 26.703125 6.109375 
Q 34.1875 6.109375 38.703125 11.40625 
Q 43.21875 16.703125 43.21875 25.484375 
L 43.21875 27.484375 
z
M 52.203125 31.203125 
L 52.203125 0 
L 43.21875 0 
L 43.21875 8.296875 
Q 40.140625 3.328125 35.546875 0.953125 
Q 30.953125 -1.421875 24.3125 -1.421875 
Q 15.921875 -1.421875 10.953125 3.296875 
Q 6 8.015625 6 15.921875 
Q 6 25.140625 12.171875 29.828125 
Q 18.359375 34.515625 30.609375 34.515625 
L 43.21875 34.515625 
L 43.21875 35.40625 
Q 43.21875 41.609375 39.140625 45 
Q 35.0625 48.390625 27.6875 48.390625 
Q 23 48.390625 18.546875 47.265625 
Q 14.109375 46.140625 10.015625 43.890625 
L 10.015625 52.203125 
Q 14.9375 54.109375 19.578125 55.046875 
Q 24.21875 56 28.609375 56 
Q 40.484375 56 46.34375 49.84375 
Q 52.203125 43.703125 52.203125 31.203125 
z
" id="DejaVuSans-97"/>
      <path d="M 54.890625 33.015625 
L 54.890625 0 
L 45.90625 0 
L 45.90625 32.71875 
Q 45.90625 40.484375 42.875 44.328125 
Q 39.84375 48.1875 33.796875 48.1875 
Q 26.515625 48.1875 22.3125 43.546875 
Q 18.109375 38.921875 18.109375 30.90625 
L 18.109375 0 
L 9.078125 0 
L 9.078125 54.6875 
L 18.109375 54.6875 
L 18.109375 46.1875 
Q 21.34375 51.125 25.703125 53.5625 
Q 30.078125 56 35.796875 56 
Q 45.21875 56 50.046875 50.171875 
Q 54.890625 44.34375 54.890625 33.015625 
z
" id="DejaVuSans-110"/>
      <path d="M 48.78125 52.59375 
L 48.78125 44.1875 
Q 44.96875 46.296875 41.140625 47.34375 
Q 37.3125 48.390625 33.40625 48.390625 
Q 24.65625 48.390625 19.8125 42.84375 
Q 14.984375 37.3125 14.984375 27.296875 
Q 14.984375 17.28125 19.8125 11.734375 
Q 24.65625 6.203125 33.40625 6.203125 
Q 37.3125 6.203125 41.140625 7.25 
Q 44.96875 8.296875 48.78125 10.40625 
L 48.78125 2.09375 
Q 45.015625 0.34375 40.984375 -0.53125 
Q 36.96875 -1.421875 32.421875 -1.421875 
Q 20.0625 -1.421875 12.78125 6.34375 
Q 5.515625 14.109375 5.515625 27.296875 
Q 5.515625 40.671875 12.859375 48.328125 
Q 20.21875 56 33.015625 56 
Q 37.15625 56 41.109375 55.140625 
Q 45.0625 54.296875 48.78125 52.59375 
z
" id="DejaVuSans-99"/>
      <path d="M 56.203125 29.59375 
L 56.203125 25.203125 
L 14.890625 25.203125 
Q 15.484375 15.921875 20.484375 11.0625 
Q 25.484375 6.203125 34.421875 6.203125 
Q 39.59375 6.203125 44.453125 7.46875 
Q 49.3125 8.734375 54.109375 11.28125 
L 54.109375 2.78125 
Q 49.265625 0.734375 44.1875 -0.34375 
Q 39.109375 -1.421875 33.890625 -1.421875 
Q 20.796875 -1.421875 13.15625 6.1875 
Q 5.515625 13.8125 5.515625 26.8125 
Q 5.515625 40.234375 12.765625 48.109375 
Q 20.015625 56 32.328125 56 
Q 43.359375 56 49.78125 48.890625 
Q 56.203125 41.796875 56.203125 29.59375 
z
M 47.21875 32.234375 
Q 47.125 39.59375 43.09375 43.984375 
Q 39.0625 48.390625 32.421875 48.390625 
Q 24.90625 48.390625 20.390625 44.140625 
Q 15.875 39.890625 15.1875 32.171875 
z
" id="DejaVuSans-101"/>
      <path id="DejaVuSans-32"/>
      <path d="M 48.6875 27.296875 
Q 48.6875 37.203125 44.609375 42.84375 
Q 40.53125 48.484375 33.40625 48.484375 
Q 26.265625 48.484375 22.1875 42.84375 
Q 18.109375 37.203125 18.109375 27.296875 
Q 18.109375 17.390625 22.1875 11.75 
Q 26.265625 6.109375 33.40625 6.109375 
Q 40.53125 6.109375 44.609375 11.75 
Q 48.6875 17.390625 48.6875 27.296875 
z
M 18.109375 46.390625 
Q 20.953125 51.265625 25.265625 53.625 
Q 29.59375 56 35.59375 56 
Q 45.5625 56 51.78125 48.09375 
Q 58.015625 40.1875 58.015625 27.296875 
Q 58.015625 14.40625 51.78125 6.484375 
Q 45.5625 -1.421875 35.59375 -1.421875 
Q 29.59375 -1.421875 25.265625 0.953125 
Q 20.953125 3.328125 18.109375 8.203125 
L 18.109375 0 
L 9.078125 0 
L 9.078125 75.984375 
L 18.109375 75.984375 
z
" id="DejaVuSans-98"/>
      <path d="M 4.203125 54.6875 
L 13.1875 54.6875 
L 24.421875 12.015625 
L 35.59375 54.6875 
L 46.1875 54.6875 
L 57.421875 12.015625 
L 68.609375 54.6875 
L 77.59375 54.6875 
L 63.28125 0 
L 52.6875 0 
L 40.921875 44.828125 
L 29.109375 0 
L 18.5 0 
z
" id="DejaVuSans-119"/>
      <path d="M 9.421875 75.984375 
L 18.40625 75.984375 
L 18.40625 0 
L 9.421875 0 
z
" id="DejaVuSans-108"/>
      <path d="M 52 44.1875 
Q 55.375 50.25 60.0625 53.125 
Q 64.75 56 71.09375 56 
Q 79.640625 56 84.28125 50.015625 
Q 88.921875 44.046875 88.921875 33.015625 
L 88.921875 0 
L 79.890625 0 
L 79.890625 32.71875 
Q 79.890625 40.578125 77.09375 44.375 
Q 74.3125 48.1875 68.609375 48.1875 
Q 61.625 48.1875 57.5625 43.546875 
Q 53.515625 38.921875 53.515625 30.90625 
L 53.515625 0 
L 44.484375 0 
L 44.484375 32.71875 
Q 44.484375 40.625 41.703125 44.40625 
Q 38.921875 48.1875 33.109375 48.1875 
Q 26.21875 48.1875 22.15625 43.53125 
Q 18.109375 38.875 18.109375 30.90625 
L 18.109375 0 
L 9.078125 0 
L 9.078125 54.6875 
L 18.109375 54.6875 
L 18.109375 46.1875 
Q 21.1875 51.21875 25.484375 53.609375 
Q 29.78125 56 35.6875 56 
Q 41.65625 56 45.828125 52.96875 
Q 50 49.953125 52 44.1875 
z
" id="DejaVuSans-109"/>
     </defs>
     <g transform="translate(102.437173 387.103125)scale(0.18 -0.18)">
      <use xlink:href="#DejaVuSans-68"/>
      <use x="77.001953" xlink:href="#DejaVuSans-105"/>
      <use x="104.785156" xlink:href="#DejaVuSans-115"/>
      <use x="156.884766" xlink:href="#DejaVuSans-116"/>
      <use x="196.09375" xlink:href="#DejaVuSans-97"/>
      <use x="257.373047" xlink:href="#DejaVuSans-110"/>
      <use x="320.751953" xlink:href="#DejaVuSans-99"/>
      <use x="375.732422" xlink:href="#DejaVuSans-101"/>
      <use x="437.255859" xlink:href="#DejaVuSans-32"/>
      <use x="469.042969" xlink:href="#DejaVuSans-98"/>
      <use x="532.519531" xlink:href="#DejaVuSans-101"/>
      <use x="594.042969" xlink:href="#DejaVuSans-116"/>
      <use x="633.251953" xlink:href="#DejaVuSans-119"/>
      <use x="715.039062" xlink:href="#DejaVuSans-101"/>
      <use x="776.5625" xlink:href="#DejaVuSans-101"/>
      <use x="838.085938" xlink:href="#DejaVuSans-110"/>
      <use x="901.464844" xlink:href="#DejaVuSans-32"/>
      <use x="933.251953" xlink:href="#DejaVuSans-101"/>
      <use x="994.775391" xlink:href="#DejaVuSans-108"/>
      <use x="1022.558594" xlink:href="#DejaVuSans-101"/>
      <use x="1084.082031" xlink:href="#DejaVuSans-109"/>
      <use x="1181.494141" xlink:href="#DejaVuSans-101"/>
      <use x="1243.017578" xlink:href="#DejaVuSans-110"/>
      <use x="1306.396484" xlink:href="#DejaVuSans-116"/>
      <use x="1345.605469" xlink:href="#DejaVuSans-115"/>
     </g>
    </g>
   </g>
   <g id="matplotlib.axis_2">
    <g id="ytick_1">
     <g id="line2d_40">
      <defs>
       <path d="M 0 0 
L -3.5 0 
" id="m35a164ab8a" style="stroke:#000000;stroke-width:0.8;"/>
      </defs>
      <g>
       <use style="stroke:#000000;stroke-width:0.8;" x="50.685" xlink:href="#m35a164ab8a" y="348.876562"/>
      </g>
     </g>
     <g id="text_7">
      <!-- 2.2 -->
      <defs>
       <path d="M 10.6875 12.40625 
L 21 12.40625 
L 21 0 
L 10.6875 0 
z
" id="DejaVuSans-46"/>
      </defs>
      <g transform="translate(21.420625 354.195469)scale(0.14 -0.14)">
       <use xlink:href="#DejaVuSans-50"/>
       <use x="63.623047" xlink:href="#DejaVuSans-46"/>
       <use x="95.410156" xlink:href="#DejaVuSans-50"/>
      </g>
     </g>
    </g>
    <g id="ytick_2">
     <g id="line2d_41">
      <g>
       <use style="stroke:#000000;stroke-width:0.8;" x="50.685" xlink:href="#m35a164ab8a" y="294.516562"/>
      </g>
     </g>
     <g id="text_8">
      <!-- 2.4 -->
      <g transform="translate(21.420625 299.835469)scale(0.14 -0.14)">
       <use xlink:href="#DejaVuSans-50"/>
       <use x="63.623047" xlink:href="#DejaVuSans-46"/>
       <use x="95.410156" xlink:href="#DejaVuSans-52"/>
      </g>
     </g>
    </g>
    <g id="ytick_3">
     <g id="line2d_42">
      <g>
       <use style="stroke:#000000;stroke-width:0.8;" x="50.685" xlink:href="#m35a164ab8a" y="240.156562"/>
      </g>
     </g>
     <g id="text_9">
      <!-- 2.6 -->
      <defs>
       <path d="M 33.015625 40.375 
Q 26.375 40.375 22.484375 35.828125 
Q 18.609375 31.296875 18.609375 23.390625 
Q 18.609375 15.53125 22.484375 10.953125 
Q 26.375 6.390625 33.015625 6.390625 
Q 39.65625 6.390625 43.53125 10.953125 
Q 47.40625 15.53125 47.40625 23.390625 
Q 47.40625 31.296875 43.53125 35.828125 
Q 39.65625 40.375 33.015625 40.375 
z
M 52.59375 71.296875 
L 52.59375 62.3125 
Q 48.875 64.0625 45.09375 64.984375 
Q 41.3125 65.921875 37.59375 65.921875 
Q 27.828125 65.921875 22.671875 59.328125 
Q 17.53125 52.734375 16.796875 39.40625 
Q 19.671875 43.65625 24.015625 45.921875 
Q 28.375 48.1875 33.59375 48.1875 
Q 44.578125 48.1875 50.953125 41.515625 
Q 57.328125 34.859375 57.328125 23.390625 
Q 57.328125 12.15625 50.6875 5.359375 
Q 44.046875 -1.421875 33.015625 -1.421875 
Q 20.359375 -1.421875 13.671875 8.265625 
Q 6.984375 17.96875 6.984375 36.375 
Q 6.984375 53.65625 15.1875 63.9375 
Q 23.390625 74.21875 37.203125 74.21875 
Q 40.921875 74.21875 44.703125 73.484375 
Q 48.484375 72.75 52.59375 71.296875 
z
" id="DejaVuSans-54"/>
      </defs>
      <g transform="translate(21.420625 245.475469)scale(0.14 -0.14)">
       <use xlink:href="#DejaVuSans-50"/>
       <use x="63.623047" xlink:href="#DejaVuSans-46"/>
       <use x="95.410156" xlink:href="#DejaVuSans-54"/>
      </g>
     </g>
    </g>
    <g id="ytick_4">
     <g id="line2d_43">
      <g>
       <use style="stroke:#000000;stroke-width:0.8;" x="50.685" xlink:href="#m35a164ab8a" y="185.796562"/>
      </g>
     </g>
     <g id="text_10">
      <!-- 2.8 -->
      <defs>
       <path d="M 31.78125 34.625 
Q 24.75 34.625 20.71875 30.859375 
Q 16.703125 27.09375 16.703125 20.515625 
Q 16.703125 13.921875 20.71875 10.15625 
Q 24.75 6.390625 31.78125 6.390625 
Q 38.8125 6.390625 42.859375 10.171875 
Q 46.921875 13.96875 46.921875 20.515625 
Q 46.921875 27.09375 42.890625 30.859375 
Q 38.875 34.625 31.78125 34.625 
z
M 21.921875 38.8125 
Q 15.578125 40.375 12.03125 44.71875 
Q 8.5 49.078125 8.5 55.328125 
Q 8.5 64.0625 14.71875 69.140625 
Q 20.953125 74.21875 31.78125 74.21875 
Q 42.671875 74.21875 48.875 69.140625 
Q 55.078125 64.0625 55.078125 55.328125 
Q 55.078125 49.078125 51.53125 44.71875 
Q 48 40.375 41.703125 38.8125 
Q 48.828125 37.15625 52.796875 32.3125 
Q 56.78125 27.484375 56.78125 20.515625 
Q 56.78125 9.90625 50.3125 4.234375 
Q 43.84375 -1.421875 31.78125 -1.421875 
Q 19.734375 -1.421875 13.25 4.234375 
Q 6.78125 9.90625 6.78125 20.515625 
Q 6.78125 27.484375 10.78125 32.3125 
Q 14.796875 37.15625 21.921875 38.8125 
z
M 18.3125 54.390625 
Q 18.3125 48.734375 21.84375 45.5625 
Q 25.390625 42.390625 31.78125 42.390625 
Q 38.140625 42.390625 41.71875 45.5625 
Q 45.3125 48.734375 45.3125 54.390625 
Q 45.3125 60.0625 41.71875 63.234375 
Q 38.140625 66.40625 31.78125 66.40625 
Q 25.390625 66.40625 21.84375 63.234375 
Q 18.3125 60.0625 18.3125 54.390625 
z
" id="DejaVuSans-56"/>
      </defs>
      <g transform="translate(21.420625 191.115469)scale(0.14 -0.14)">
       <use xlink:href="#DejaVuSans-50"/>
       <use x="63.623047" xlink:href="#DejaVuSans-46"/>
       <use x="95.410156" xlink:href="#DejaVuSans-56"/>
      </g>
     </g>
    </g>
    <g id="ytick_5">
     <g id="line2d_44">
      <g>
       <use style="stroke:#000000;stroke-width:0.8;" x="50.685" xlink:href="#m35a164ab8a" y="131.436562"/>
      </g>
     </g>
     <g id="text_11">
      <!-- 3.0 -->
      <g transform="translate(21.420625 136.755469)scale(0.14 -0.14)">
       <use xlink:href="#DejaVuSans-51"/>
       <use x="63.623047" xlink:href="#DejaVuSans-46"/>
       <use x="95.410156" xlink:href="#DejaVuSans-48"/>
      </g>
     </g>
    </g>
    <g id="ytick_6">
     <g id="line2d_45">
      <g>
       <use style="stroke:#000000;stroke-width:0.8;" x="50.685" xlink:href="#m35a164ab8a" y="77.076562"/>
      </g>
     </g>
     <g id="text_12">
      <!-- 3.2 -->
      <g transform="translate(21.420625 82.395469)scale(0.14 -0.14)">
       <use xlink:href="#DejaVuSans-51"/>
       <use x="63.623047" xlink:href="#DejaVuSans-46"/>
       <use x="95.410156" xlink:href="#DejaVuSans-50"/>
      </g>
     </g>
    </g>
    <g id="ytick_7">
     <g id="line2d_46">
      <g>
       <use style="stroke:#000000;stroke-width:0.8;" x="50.685" xlink:href="#m35a164ab8a" y="22.716562"/>
      </g>
     </g>
     <g id="text_13">
      <!-- 3.4 -->
      <g transform="translate(21.420625 28.035469)scale(0.14 -0.14)">
       <use xlink:href="#DejaVuSans-51"/>
       <use x="63.623047" xlink:href="#DejaVuSans-46"/>
       <use x="95.410156" xlink:href="#DejaVuSans-52"/>
      </g>
     </g>
    </g>
    <g id="text_14">
     <!-- Mutual Information -->
     <defs>
      <path d="M 9.8125 72.90625 
L 24.515625 72.90625 
L 43.109375 23.296875 
L 61.8125 72.90625 
L 76.515625 72.90625 
L 76.515625 0 
L 66.890625 0 
L 66.890625 64.015625 
L 48.09375 14.015625 
L 38.1875 14.015625 
L 19.390625 64.015625 
L 19.390625 0 
L 9.8125 0 
z
" id="DejaVuSans-77"/>
      <path d="M 8.5 21.578125 
L 8.5 54.6875 
L 17.484375 54.6875 
L 17.484375 21.921875 
Q 17.484375 14.15625 20.5 10.265625 
Q 23.53125 6.390625 29.59375 6.390625 
Q 36.859375 6.390625 41.078125 11.03125 
Q 45.3125 15.671875 45.3125 23.6875 
L 45.3125 54.6875 
L 54.296875 54.6875 
L 54.296875 0 
L 45.3125 0 
L 45.3125 8.40625 
Q 42.046875 3.421875 37.71875 1 
Q 33.40625 -1.421875 27.6875 -1.421875 
Q 18.265625 -1.421875 13.375 4.4375 
Q 8.5 10.296875 8.5 21.578125 
z
M 31.109375 56 
z
" id="DejaVuSans-117"/>
      <path d="M 9.8125 72.90625 
L 19.671875 72.90625 
L 19.671875 0 
L 9.8125 0 
z
" id="DejaVuSans-73"/>
      <path d="M 37.109375 75.984375 
L 37.109375 68.5 
L 28.515625 68.5 
Q 23.6875 68.5 21.796875 66.546875 
Q 19.921875 64.59375 19.921875 59.515625 
L 19.921875 54.6875 
L 34.71875 54.6875 
L 34.71875 47.703125 
L 19.921875 47.703125 
L 19.921875 0 
L 10.890625 0 
L 10.890625 47.703125 
L 2.296875 47.703125 
L 2.296875 54.6875 
L 10.890625 54.6875 
L 10.890625 58.5 
Q 10.890625 67.625 15.140625 71.796875 
Q 19.390625 75.984375 28.609375 75.984375 
z
" id="DejaVuSans-102"/>
      <path d="M 30.609375 48.390625 
Q 23.390625 48.390625 19.1875 42.75 
Q 14.984375 37.109375 14.984375 27.296875 
Q 14.984375 17.484375 19.15625 11.84375 
Q 23.34375 6.203125 30.609375 6.203125 
Q 37.796875 6.203125 41.984375 11.859375 
Q 46.1875 17.53125 46.1875 27.296875 
Q 46.1875 37.015625 41.984375 42.703125 
Q 37.796875 48.390625 30.609375 48.390625 
z
M 30.609375 56 
Q 42.328125 56 49.015625 48.375 
Q 55.71875 40.765625 55.71875 27.296875 
Q 55.71875 13.875 49.015625 6.21875 
Q 42.328125 -1.421875 30.609375 -1.421875 
Q 18.84375 -1.421875 12.171875 6.21875 
Q 5.515625 13.875 5.515625 27.296875 
Q 5.515625 40.765625 12.171875 48.375 
Q 18.84375 56 30.609375 56 
z
" id="DejaVuSans-111"/>
      <path d="M 41.109375 46.296875 
Q 39.59375 47.171875 37.8125 47.578125 
Q 36.03125 48 33.890625 48 
Q 26.265625 48 22.1875 43.046875 
Q 18.109375 38.09375 18.109375 28.8125 
L 18.109375 0 
L 9.078125 0 
L 9.078125 54.6875 
L 18.109375 54.6875 
L 18.109375 46.1875 
Q 20.953125 51.171875 25.484375 53.578125 
Q 30.03125 56 36.53125 56 
Q 37.453125 56 38.578125 55.875 
Q 39.703125 55.765625 41.0625 55.515625 
z
" id="DejaVuSans-114"/>
     </defs>
     <g transform="translate(13.677187 271.627031)rotate(-90)scale(0.18 -0.18)">
      <use xlink:href="#DejaVuSans-77"/>
      <use x="86.279297" xlink:href="#DejaVuSans-117"/>
      <use x="149.658203" xlink:href="#DejaVuSans-116"/>
      <use x="188.867188" xlink:href="#DejaVuSans-117"/>
      <use x="252.246094" xlink:href="#DejaVuSans-97"/>
      <use x="313.525391" xlink:href="#DejaVuSans-108"/>
      <use x="341.308594" xlink:href="#DejaVuSans-32"/>
      <use x="373.095703" xlink:href="#DejaVuSans-73"/>
      <use x="402.587891" xlink:href="#DejaVuSans-110"/>
      <use x="465.966797" xlink:href="#DejaVuSans-102"/>
      <use x="501.171875" xlink:href="#DejaVuSans-111"/>
      <use x="562.353516" xlink:href="#DejaVuSans-114"/>
      <use x="603.451172" xlink:href="#DejaVuSans-109"/>
      <use x="700.863281" xlink:href="#DejaVuSans-97"/>
      <use x="762.142578" xlink:href="#DejaVuSans-116"/>
      <use x="801.351562" xlink:href="#DejaVuSans-105"/>
      <use x="829.134766" xlink:href="#DejaVuSans-111"/>
      <use x="890.316406" xlink:href="#DejaVuSans-110"/>
     </g>
    </g>
   </g>
   <g id="line2d_47">
    <path clip-path="url(#p4dd7483d83)" d="M 50.685 319.491898 
L 74.812183 319.329318 
L 88.925681 319.821968 
L 98.939367 320.048867 
L 106.706585 319.868351 
L 113.052864 318.62144 
L 118.418567 318.472571 
L 123.06655 319.240781 
L 127.166362 318.456488 
L 130.833768 318.724811 
L 134.151341 317.620472 
L 139.966187 320.708153 
L 142.54575 317.298769 
L 147.193733 318.611441 
L 149.303965 318.864731 
L 153.175526 318.972132 
L 156.659248 319.038515 
L 161.307231 319.204621 
L 164.093371 316.649022 
L 167.894398 319.331196 
L 172.392022 319.834336 
L 175.420728 319.287798 
L 179.088135 318.342948 
L 183.187946 318.475133 
L 186.152134 319.780852 
L 190.172926 319.02164 
L 193.776987 318.837659 
L 197.558332 317.904248 
L 200.96885 317.810736 
L 204.496745 318.351572 
L 208.080175 320.271972 
L 211.671829 320.131478 
L 215.236708 319.92441 
L 219.027112 321.225628 
L 222.444996 319.704154 
L 226.012091 319.309475 
L 229.656887 320.113976 
L 233.324294 319.108756 
L 236.973375 317.015001 
L 240.425661 317.975516 
L 244.108003 318.676418 
L 247.681206 318.506968 
L 251.251451 318.091338 
L 254.886004 317.015832 
L 258.444774 317.044966 
L 261.996257 316.289304 
L 265.583182 315.566659 
L 269.163459 315.61667 
L 272.765375 315.590983 
L 276.350088 314.118964 
L 279.937568 316.248436 
L 283.537693 314.234675 
L 287.114064 313.375693 
L 290.71108 312.981036 
L 294.290297 311.491524 
L 297.852644 313.580026 
L 301.448237 312.654307 
L 305.035324 310.078265 
L 308.625605 310.563692 
L 312.204457 309.660052 
L 315.776733 307.78043 
L 319.373766 305.589616 
L 322.95602 304.610591 
L 326.532625 303.367786 
L 330.118108 302.008642 
L 333.697958 300.963371 
L 337.278158 300.455121 
L 340.867818 299.02335 
L 344.446716 298.085665 
L 348.032763 296.480306 
L 351.615898 295.152851 
L 355.197465 294.969912 
L 358.780234 290.87608 
L 362.362797 283.196892 
L 365.945103 281.309837 
L 369.527607 270.623858 
L 373.110719 261.505165 
L 376.691493 250.723577 
L 380.275668 241.566577 
L 383.858835 227.081206 
L 387.441501 211.775884 
L 391.022814 182.612079 
L 394.606223 151.012777 
L 398.189111 121.119538 
L 401.770935 93.096563 
L 405.353435 114.819659 
" style="fill:none;stroke:#ff0000;stroke-dasharray:11.1,4.8;stroke-dashoffset:0;stroke-width:3;"/>
   </g>
   <g id="line2d_48">
    <path clip-path="url(#p4dd7483d83)" d="M 50.685 319.220575 
L 74.812183 317.813229 
L 88.925681 318.662284 
L 98.939367 317.838171 
L 106.706585 319.275523 
L 113.052864 318.902568 
L 118.418567 318.486072 
L 123.06655 319.850014 
L 127.166362 319.316317 
L 130.833768 318.024793 
L 134.151341 320.16451 
L 139.966187 319.439297 
L 142.54575 317.913572 
L 147.193733 318.146924 
L 149.303965 320.037573 
L 153.175526 319.329767 
L 156.659248 317.619943 
L 161.307231 318.234376 
L 164.093371 315.430887 
L 167.894398 319.860481 
L 172.392022 320.4659 
L 175.420728 317.451259 
L 179.088135 319.377149 
L 183.187946 318.338226 
L 186.152134 320.095435 
L 190.172926 318.639967 
L 193.776987 319.53495 
L 197.558332 317.735962 
L 200.96885 318.23193 
L 204.496745 320.5475 
L 208.080175 318.166177 
L 211.671829 319.765946 
L 215.236708 318.583501 
L 219.027112 317.976164 
L 222.444996 317.118645 
L 226.012091 321.843211 
L 229.656887 318.689814 
L 233.324294 319.062371 
L 236.973375 318.468208 
L 240.425661 317.419533 
L 244.108003 318.385413 
L 247.681206 318.32825 
L 251.251451 316.525654 
L 254.886004 317.339344 
L 258.444774 316.153882 
L 261.996257 314.985549 
L 265.583182 315.215611 
L 269.163459 315.790214 
L 272.765375 315.083605 
L 276.350088 315.874591 
L 279.937568 312.93646 
L 283.537693 314.284557 
L 287.114064 314.152982 
L 290.71108 313.42149 
L 294.290297 312.251855 
L 297.852644 312.873673 
L 301.448237 312.221373 
L 305.035324 310.826549 
L 308.625605 309.944765 
L 312.204457 308.177728 
L 315.776733 307.608732 
L 319.373766 306.361828 
L 322.95602 304.503481 
L 326.532625 303.931918 
L 330.118108 301.808811 
L 333.697958 301.219001 
L 337.278158 296.851988 
L 340.867818 295.689323 
L 344.446716 291.999202 
L 348.032763 288.189374 
L 351.615898 283.567837 
L 355.197465 280.216037 
L 358.780234 275.23918 
L 362.362797 269.382133 
L 365.945103 262.133043 
L 369.527607 257.495336 
L 373.110719 247.661189 
L 376.691493 235.3006 
L 380.275668 220.770209 
L 383.858835 208.634846 
L 387.441501 183.926527 
L 391.022814 160.972286 
L 394.606223 129.879219 
L 398.189111 78.067761 
L 401.573116 -1 
" style="fill:none;stroke:#0000ff;stroke-dasharray:11.1,4.8;stroke-dashoffset:0;stroke-width:3;"/>
   </g>
   <g id="line2d_49">
    <path clip-path="url(#p4dd7483d83)" d="M 50.685 319.586712 
L 74.812183 318.464307 
L 88.925681 317.337094 
L 98.939367 316.163733 
L 106.706585 314.984769 
L 113.052864 323.581348 
L 118.418567 322.353719 
L 123.06655 321.093164 
L 127.166362 319.801335 
L 130.833768 318.510773 
L 134.151341 317.212141 
L 139.966187 314.45008 
L 142.54575 322.849862 
L 147.193733 320.076139 
L 149.303965 318.591225 
L 153.175526 315.594615 
L 156.659248 322.315848 
L 161.307231 317.529688 
L 164.093371 314.225487 
L 167.894398 318.967071 
L 172.392022 321.593435 
L 175.420728 315.971059 
L 179.088135 317.986272 
L 183.187946 317.380128 
L 186.152134 318.495699 
L 190.172926 314.604198 
L 193.776987 319.697417 
L 197.558332 321.404375 
L 200.96885 321.78796 
L 204.496745 318.101773 
L 208.080175 319.444015 
L 211.671829 315.550386 
L 215.236708 315.355997 
L 219.027112 314.194088 
L 222.444996 318.948342 
L 226.012091 320.320106 
L 229.656887 315.837478 
L 233.324294 323.072222 
L 236.973375 319.662965 
L 240.425661 318.995747 
L 244.108003 317.895289 
L 247.681206 314.844054 
L 251.251451 316.869995 
L 254.886004 317.982392 
L 258.444774 318.152419 
L 261.996257 317.848941 
L 265.583182 312.382599 
L 269.163459 314.531496 
L 272.765375 319.898779 
L 276.350088 313.12578 
L 279.937568 317.061405 
L 283.537693 314.751078 
L 287.114064 309.846703 
L 290.71108 310.635399 
L 294.290297 313.781529 
L 297.852644 308.567343 
L 301.448237 315.050608 
L 305.035324 312.607976 
L 308.625605 311.596269 
L 312.204457 305.178224 
L 315.776733 303.853175 
L 319.373766 302.600614 
L 322.95602 306.48457 
L 326.532625 300.400218 
L 330.118108 304.480492 
L 333.697958 306.289182 
L 337.278158 301.42316 
L 340.867818 299.417496 
L 344.446716 299.777599 
L 348.032763 296.115466 
L 351.615898 292.635008 
L 355.197465 293.482256 
L 358.780234 290.382686 
L 362.362797 283.277263 
L 365.945103 281.072462 
L 369.527607 271.619367 
L 373.110719 261.365989 
L 376.691493 248.981642 
L 380.275668 240.879788 
L 383.858835 224.451347 
L 387.441501 206.888952 
L 391.022814 182.384852 
L 394.606223 148.498112 
L 398.189111 120.195824 
L 401.770935 98.826896 
L 405.353435 115.160326 
" style="fill:none;stroke:#008000;stroke-dasharray:11.1,4.8;stroke-dashoffset:0;stroke-width:3;"/>
   </g>
   <g id="patch_3">
    <path d="M 50.685 348.876562 
L 50.685 22.716563 
" style="fill:none;stroke:#000000;stroke-linecap:square;stroke-linejoin:miter;stroke-width:3;"/>
   </g>
   <g id="patch_4">
    <path d="M 405.775909 348.876562 
L 405.775909 22.716563 
" style="fill:none;stroke:#000000;stroke-linecap:square;stroke-linejoin:miter;stroke-width:3;"/>
   </g>
   <g id="patch_5">
    <path d="M 50.685 348.876562 
L 405.775909 348.876562 
" style="fill:none;stroke:#000000;stroke-linecap:square;stroke-linejoin:miter;stroke-width:3;"/>
   </g>
   <g id="patch_6">
    <path d="M 50.685 22.716563 
L 405.775909 22.716563 
" style="fill:none;stroke:#000000;stroke-linecap:square;stroke-linejoin:miter;stroke-width:3;"/>
   </g>
   <g id="text_15">
    <!-- $I$ vs lower bound -->
    <defs>
     <path d="M 16.890625 72.90625 
L 26.8125 72.90625 
L 12.59375 0 
L 2.6875 0 
z
" id="DejaVuSans-Oblique-73"/>
     <path d="M 2.984375 54.6875 
L 12.5 54.6875 
L 29.59375 8.796875 
L 46.6875 54.6875 
L 56.203125 54.6875 
L 35.6875 0 
L 23.484375 0 
z
" id="DejaVuSans-118"/>
     <path d="M 45.40625 46.390625 
L 45.40625 75.984375 
L 54.390625 75.984375 
L 54.390625 0 
L 45.40625 0 
L 45.40625 8.203125 
Q 42.578125 3.328125 38.25 0.953125 
Q 33.9375 -1.421875 27.875 -1.421875 
Q 17.96875 -1.421875 11.734375 6.484375 
Q 5.515625 14.40625 5.515625 27.296875 
Q 5.515625 40.1875 11.734375 48.09375 
Q 17.96875 56 27.875 56 
Q 33.9375 56 38.25 53.625 
Q 42.578125 51.265625 45.40625 46.390625 
z
M 14.796875 27.296875 
Q 14.796875 17.390625 18.875 11.75 
Q 22.953125 6.109375 30.078125 6.109375 
Q 37.203125 6.109375 41.296875 11.75 
Q 45.40625 17.390625 45.40625 27.296875 
Q 45.40625 37.203125 41.296875 42.84375 
Q 37.203125 48.484375 30.078125 48.484375 
Q 22.953125 48.484375 18.875 42.84375 
Q 14.796875 37.203125 14.796875 27.296875 
z
" id="DejaVuSans-100"/>
    </defs>
    <g transform="translate(137.480455 16.716563)scale(0.22 -0.22)">
     <use transform="translate(0 0.015625)" xlink:href="#DejaVuSans-Oblique-73"/>
     <use transform="translate(29.492188 0.015625)" xlink:href="#DejaVuSans-32"/>
     <use transform="translate(61.279297 0.015625)" xlink:href="#DejaVuSans-118"/>
     <use transform="translate(120.458984 0.015625)" xlink:href="#DejaVuSans-115"/>
     <use transform="translate(172.558594 0.015625)" xlink:href="#DejaVuSans-32"/>
     <use transform="translate(204.345703 0.015625)" xlink:href="#DejaVuSans-108"/>
     <use transform="translate(232.128906 0.015625)" xlink:href="#DejaVuSans-111"/>
     <use transform="translate(293.310547 0.015625)" xlink:href="#DejaVuSans-119"/>
     <use transform="translate(375.097656 0.015625)" xlink:href="#DejaVuSans-101"/>
     <use transform="translate(436.621094 0.015625)" xlink:href="#DejaVuSans-114"/>
     <use transform="translate(477.734375 0.015625)" xlink:href="#DejaVuSans-32"/>
     <use transform="translate(509.521484 0.015625)" xlink:href="#DejaVuSans-98"/>
     <use transform="translate(572.998047 0.015625)" xlink:href="#DejaVuSans-111"/>
     <use transform="translate(634.179688 0.015625)" xlink:href="#DejaVuSans-117"/>
     <use transform="translate(697.558594 0.015625)" xlink:href="#DejaVuSans-110"/>
     <use transform="translate(760.9375 0.015625)" xlink:href="#DejaVuSans-100"/>
    </g>
   </g>
   <g id="legend_1">
    <g id="line2d_50">
     <path d="M 63.285 41.054375 
L 91.285 41.054375 
" style="fill:none;stroke:#ff0000;stroke-dasharray:11.1,4.8;stroke-dashoffset:0;stroke-width:3;"/>
    </g>
    <g id="line2d_51"/>
    <g id="text_16">
     <!-- $I_{sh}$ (naive) -->
     <defs>
      <path d="M 50 53.078125 
L 48.296875 44.578125 
Q 44.734375 46.53125 40.765625 47.5 
Q 36.8125 48.484375 32.625 48.484375 
Q 25.53125 48.484375 21.453125 46.0625 
Q 17.390625 43.65625 17.390625 39.5 
Q 17.390625 34.671875 26.859375 32.078125 
Q 27.59375 31.890625 27.9375 31.78125 
L 30.8125 30.90625 
Q 39.796875 28.421875 42.796875 25.6875 
Q 45.796875 22.953125 45.796875 18.21875 
Q 45.796875 9.515625 38.890625 4.046875 
Q 31.984375 -1.421875 20.796875 -1.421875 
Q 16.453125 -1.421875 11.671875 -0.578125 
Q 6.890625 0.25 1.125 2 
L 2.875 11.28125 
Q 7.8125 8.734375 12.59375 7.421875 
Q 17.390625 6.109375 21.78125 6.109375 
Q 28.375 6.109375 32.5 8.9375 
Q 36.625 11.765625 36.625 16.109375 
Q 36.625 20.796875 25.78125 23.6875 
L 24.859375 23.921875 
L 21.78125 24.703125 
Q 14.9375 26.515625 11.765625 29.46875 
Q 8.59375 32.421875 8.59375 37.015625 
Q 8.59375 45.75 15.15625 50.875 
Q 21.734375 56 33.015625 56 
Q 37.453125 56 41.671875 55.265625 
Q 45.90625 54.546875 50 53.078125 
z
" id="DejaVuSans-Oblique-115"/>
      <path d="M 55.71875 33.015625 
L 49.3125 0 
L 40.28125 0 
L 46.6875 32.671875 
Q 47.125 34.96875 47.359375 36.71875 
Q 47.609375 38.484375 47.609375 39.5 
Q 47.609375 43.609375 45.015625 45.890625 
Q 42.4375 48.1875 37.796875 48.1875 
Q 30.5625 48.1875 25.265625 43.296875 
Q 19.96875 38.421875 18.40625 30.328125 
L 12.5 0 
L 3.515625 0 
L 18.3125 75.984375 
L 27.296875 75.984375 
L 21.484375 46.09375 
Q 24.90625 50.6875 30.21875 53.34375 
Q 35.546875 56 41.40625 56 
Q 48.640625 56 52.609375 52.09375 
Q 56.59375 48.1875 56.59375 41.109375 
Q 56.59375 39.359375 56.375 37.359375 
Q 56.15625 35.359375 55.71875 33.015625 
z
" id="DejaVuSans-Oblique-104"/>
      <path d="M 31 75.875 
Q 24.46875 64.65625 21.28125 53.65625 
Q 18.109375 42.671875 18.109375 31.390625 
Q 18.109375 20.125 21.3125 9.0625 
Q 24.515625 -2 31 -13.1875 
L 23.1875 -13.1875 
Q 15.875 -1.703125 12.234375 9.375 
Q 8.59375 20.453125 8.59375 31.390625 
Q 8.59375 42.28125 12.203125 53.3125 
Q 15.828125 64.359375 23.1875 75.875 
z
" id="DejaVuSans-40"/>
      <path d="M 8.015625 75.875 
L 15.828125 75.875 
Q 23.140625 64.359375 26.78125 53.3125 
Q 30.421875 42.28125 30.421875 31.390625 
Q 30.421875 20.453125 26.78125 9.375 
Q 23.140625 -1.703125 15.828125 -13.1875 
L 8.015625 -13.1875 
Q 14.5 -2 17.703125 9.0625 
Q 20.90625 20.125 20.90625 31.390625 
Q 20.90625 42.671875 17.703125 53.65625 
Q 14.5 64.65625 8.015625 75.875 
z
" id="DejaVuSans-41"/>
     </defs>
     <g transform="translate(102.485 45.954375)scale(0.14 -0.14)">
      <use transform="translate(0 0.015625)" xlink:href="#DejaVuSans-Oblique-73"/>
      <use transform="translate(29.492188 -16.390625)scale(0.7)" xlink:href="#DejaVuSans-Oblique-115"/>
      <use transform="translate(65.961914 -16.390625)scale(0.7)" xlink:href="#DejaVuSans-Oblique-104"/>
      <use transform="translate(113.061523 0.015625)" xlink:href="#DejaVuSans-32"/>
      <use transform="translate(144.848633 0.015625)" xlink:href="#DejaVuSans-40"/>
      <use transform="translate(183.862305 0.015625)" xlink:href="#DejaVuSans-110"/>
      <use transform="translate(247.241211 0.015625)" xlink:href="#DejaVuSans-97"/>
      <use transform="translate(308.520508 0.015625)" xlink:href="#DejaVuSans-105"/>
      <use transform="translate(336.303711 0.015625)" xlink:href="#DejaVuSans-118"/>
      <use transform="translate(395.483398 0.015625)" xlink:href="#DejaVuSans-101"/>
      <use transform="translate(457.006836 0.015625)" xlink:href="#DejaVuSans-41"/>
     </g>
    </g>
    <g id="line2d_52">
     <path d="M 63.285 61.605938 
L 91.285 61.605938 
" style="fill:none;stroke:#0000ff;stroke-dasharray:11.1,4.8;stroke-dashoffset:0;stroke-width:3;"/>
    </g>
    <g id="line2d_53"/>
    <g id="text_17">
     <!-- $I$ (naive) of temporally shuffled sequence -->
     <defs>
      <path d="M 18.109375 8.203125 
L 18.109375 -20.796875 
L 9.078125 -20.796875 
L 9.078125 54.6875 
L 18.109375 54.6875 
L 18.109375 46.390625 
Q 20.953125 51.265625 25.265625 53.625 
Q 29.59375 56 35.59375 56 
Q 45.5625 56 51.78125 48.09375 
Q 58.015625 40.1875 58.015625 27.296875 
Q 58.015625 14.40625 51.78125 6.484375 
Q 45.5625 -1.421875 35.59375 -1.421875 
Q 29.59375 -1.421875 25.265625 0.953125 
Q 20.953125 3.328125 18.109375 8.203125 
z
M 48.6875 27.296875 
Q 48.6875 37.203125 44.609375 42.84375 
Q 40.53125 48.484375 33.40625 48.484375 
Q 26.265625 48.484375 22.1875 42.84375 
Q 18.109375 37.203125 18.109375 27.296875 
Q 18.109375 17.390625 22.1875 11.75 
Q 26.265625 6.109375 33.40625 6.109375 
Q 40.53125 6.109375 44.609375 11.75 
Q 48.6875 17.390625 48.6875 27.296875 
z
" id="DejaVuSans-112"/>
      <path d="M 32.171875 -5.078125 
Q 28.375 -14.84375 24.75 -17.8125 
Q 21.140625 -20.796875 15.09375 -20.796875 
L 7.90625 -20.796875 
L 7.90625 -13.28125 
L 13.1875 -13.28125 
Q 16.890625 -13.28125 18.9375 -11.515625 
Q 21 -9.765625 23.484375 -3.21875 
L 25.09375 0.875 
L 2.984375 54.6875 
L 12.5 54.6875 
L 29.59375 11.921875 
L 46.6875 54.6875 
L 56.203125 54.6875 
z
" id="DejaVuSans-121"/>
      <path d="M 54.890625 33.015625 
L 54.890625 0 
L 45.90625 0 
L 45.90625 32.71875 
Q 45.90625 40.484375 42.875 44.328125 
Q 39.84375 48.1875 33.796875 48.1875 
Q 26.515625 48.1875 22.3125 43.546875 
Q 18.109375 38.921875 18.109375 30.90625 
L 18.109375 0 
L 9.078125 0 
L 9.078125 75.984375 
L 18.109375 75.984375 
L 18.109375 46.1875 
Q 21.34375 51.125 25.703125 53.5625 
Q 30.078125 56 35.796875 56 
Q 45.21875 56 50.046875 50.171875 
Q 54.890625 44.34375 54.890625 33.015625 
z
" id="DejaVuSans-104"/>
      <path d="M 14.796875 27.296875 
Q 14.796875 17.390625 18.875 11.75 
Q 22.953125 6.109375 30.078125 6.109375 
Q 37.203125 6.109375 41.296875 11.75 
Q 45.40625 17.390625 45.40625 27.296875 
Q 45.40625 37.203125 41.296875 42.84375 
Q 37.203125 48.484375 30.078125 48.484375 
Q 22.953125 48.484375 18.875 42.84375 
Q 14.796875 37.203125 14.796875 27.296875 
z
M 45.40625 8.203125 
Q 42.578125 3.328125 38.25 0.953125 
Q 33.9375 -1.421875 27.875 -1.421875 
Q 17.96875 -1.421875 11.734375 6.484375 
Q 5.515625 14.40625 5.515625 27.296875 
Q 5.515625 40.1875 11.734375 48.09375 
Q 17.96875 56 27.875 56 
Q 33.9375 56 38.25 53.625 
Q 42.578125 51.265625 45.40625 46.390625 
L 45.40625 54.6875 
L 54.390625 54.6875 
L 54.390625 -20.796875 
L 45.40625 -20.796875 
z
" id="DejaVuSans-113"/>
     </defs>
     <g transform="translate(102.485 66.505938)scale(0.14 -0.14)">
      <use transform="translate(0 0.015625)" xlink:href="#DejaVuSans-Oblique-73"/>
      <use transform="translate(29.492188 0.015625)" xlink:href="#DejaVuSans-32"/>
      <use transform="translate(61.279297 0.015625)" xlink:href="#DejaVuSans-40"/>
      <use transform="translate(100.292969 0.015625)" xlink:href="#DejaVuSans-110"/>
      <use transform="translate(163.671875 0.015625)" xlink:href="#DejaVuSans-97"/>
      <use transform="translate(224.951172 0.015625)" xlink:href="#DejaVuSans-105"/>
      <use transform="translate(252.734375 0.015625)" xlink:href="#DejaVuSans-118"/>
      <use transform="translate(311.914062 0.015625)" xlink:href="#DejaVuSans-101"/>
      <use transform="translate(373.4375 0.015625)" xlink:href="#DejaVuSans-41"/>
      <use transform="translate(412.451172 0.015625)" xlink:href="#DejaVuSans-32"/>
      <use transform="translate(444.238281 0.015625)" xlink:href="#DejaVuSans-111"/>
      <use transform="translate(505.419922 0.015625)" xlink:href="#DejaVuSans-102"/>
      <use transform="translate(540.625 0.015625)" xlink:href="#DejaVuSans-32"/>
      <use transform="translate(572.412109 0.015625)" xlink:href="#DejaVuSans-116"/>
      <use transform="translate(611.621094 0.015625)" xlink:href="#DejaVuSans-101"/>
      <use transform="translate(673.144531 0.015625)" xlink:href="#DejaVuSans-109"/>
      <use transform="translate(770.556641 0.015625)" xlink:href="#DejaVuSans-112"/>
      <use transform="translate(834.033203 0.015625)" xlink:href="#DejaVuSans-111"/>
      <use transform="translate(895.214844 0.015625)" xlink:href="#DejaVuSans-114"/>
      <use transform="translate(936.328125 0.015625)" xlink:href="#DejaVuSans-97"/>
      <use transform="translate(997.607422 0.015625)" xlink:href="#DejaVuSans-108"/>
      <use transform="translate(1025.390625 0.015625)" xlink:href="#DejaVuSans-108"/>
      <use transform="translate(1053.173828 0.015625)" xlink:href="#DejaVuSans-121"/>
      <use transform="translate(1112.353516 0.015625)" xlink:href="#DejaVuSans-32"/>
      <use transform="translate(1144.140625 0.015625)" xlink:href="#DejaVuSans-115"/>
      <use transform="translate(1196.240234 0.015625)" xlink:href="#DejaVuSans-104"/>
      <use transform="translate(1259.619141 0.015625)" xlink:href="#DejaVuSans-117"/>
      <use transform="translate(1322.998047 0.015625)" xlink:href="#DejaVuSans-102"/>
      <use transform="translate(1358.203125 0.015625)" xlink:href="#DejaVuSans-102"/>
      <use transform="translate(1393.408203 0.015625)" xlink:href="#DejaVuSans-108"/>
      <use transform="translate(1421.191406 0.015625)" xlink:href="#DejaVuSans-101"/>
      <use transform="translate(1482.714844 0.015625)" xlink:href="#DejaVuSans-100"/>
      <use transform="translate(1546.191406 0.015625)" xlink:href="#DejaVuSans-32"/>
      <use transform="translate(1577.978516 0.015625)" xlink:href="#DejaVuSans-115"/>
      <use transform="translate(1630.078125 0.015625)" xlink:href="#DejaVuSans-101"/>
      <use transform="translate(1691.601562 0.015625)" xlink:href="#DejaVuSans-113"/>
      <use transform="translate(1755.078125 0.015625)" xlink:href="#DejaVuSans-117"/>
      <use transform="translate(1818.457031 0.015625)" xlink:href="#DejaVuSans-101"/>
      <use transform="translate(1879.980469 0.015625)" xlink:href="#DejaVuSans-110"/>
      <use transform="translate(1943.359375 0.015625)" xlink:href="#DejaVuSans-99"/>
      <use transform="translate(1998.339844 0.015625)" xlink:href="#DejaVuSans-101"/>
     </g>
    </g>
    <g id="line2d_54">
     <path d="M 63.285 82.18375 
L 91.285 82.18375 
" style="fill:none;stroke:#008000;stroke-dasharray:11.1,4.8;stroke-dashoffset:0;stroke-width:3;"/>
    </g>
    <g id="line2d_55"/>
    <g id="text_18">
     <!-- Expected MI -->
     <defs>
      <path d="M 9.8125 72.90625 
L 55.90625 72.90625 
L 55.90625 64.59375 
L 19.671875 64.59375 
L 19.671875 43.015625 
L 54.390625 43.015625 
L 54.390625 34.71875 
L 19.671875 34.71875 
L 19.671875 8.296875 
L 56.78125 8.296875 
L 56.78125 0 
L 9.8125 0 
z
" id="DejaVuSans-69"/>
      <path d="M 54.890625 54.6875 
L 35.109375 28.078125 
L 55.90625 0 
L 45.3125 0 
L 29.390625 21.484375 
L 13.484375 0 
L 2.875 0 
L 24.125 28.609375 
L 4.6875 54.6875 
L 15.28125 54.6875 
L 29.78125 35.203125 
L 44.28125 54.6875 
z
" id="DejaVuSans-120"/>
     </defs>
     <g transform="translate(102.485 87.08375)scale(0.14 -0.14)">
      <use xlink:href="#DejaVuSans-69"/>
      <use x="63.183594" xlink:href="#DejaVuSans-120"/>
      <use x="122.363281" xlink:href="#DejaVuSans-112"/>
      <use x="185.839844" xlink:href="#DejaVuSans-101"/>
      <use x="247.363281" xlink:href="#DejaVuSans-99"/>
      <use x="302.34375" xlink:href="#DejaVuSans-116"/>
      <use x="341.552734" xlink:href="#DejaVuSans-101"/>
      <use x="403.076172" xlink:href="#DejaVuSans-100"/>
      <use x="466.552734" xlink:href="#DejaVuSans-32"/>
      <use x="498.339844" xlink:href="#DejaVuSans-77"/>
      <use x="584.619141" xlink:href="#DejaVuSans-73"/>
     </g>
    </g>
    <g id="line2d_56">
     <path d="M 63.285 102.733125 
L 91.285 102.733125 
" style="fill:none;stroke:#000000;stroke-linecap:square;stroke-opacity:0.25;stroke-width:5;"/>
    </g>
    <g id="line2d_57"/>
    <g id="text_19">
     <!-- $I$ (naive) -->
     <g transform="translate(102.485 107.633125)scale(0.14 -0.14)">
      <use transform="translate(0 0.015625)" xlink:href="#DejaVuSans-Oblique-73"/>
      <use transform="translate(29.492188 0.015625)" xlink:href="#DejaVuSans-32"/>
      <use transform="translate(61.279297 0.015625)" xlink:href="#DejaVuSans-40"/>
      <use transform="translate(100.292969 0.015625)" xlink:href="#DejaVuSans-110"/>
      <use transform="translate(163.671875 0.015625)" xlink:href="#DejaVuSans-97"/>
      <use transform="translate(224.951172 0.015625)" xlink:href="#DejaVuSans-105"/>
      <use transform="translate(252.734375 0.015625)" xlink:href="#DejaVuSans-118"/>
      <use transform="translate(311.914062 0.015625)" xlink:href="#DejaVuSans-101"/>
      <use transform="translate(373.4375 0.015625)" xlink:href="#DejaVuSans-41"/>
     </g>
    </g>
   </g>
  </g>
  <g id="axes_2">
   <g id="patch_7">
    <path d="M 476.794091 348.876562 
L 831.885 348.876562 
L 831.885 22.716563 
L 476.794091 22.716563 
z
" style="fill:#ffffff;"/>
   </g>
   <g id="matplotlib.axis_3">
    <g id="xtick_39">
     <g id="line2d_58">
      <g>
       <use style="stroke:#000000;stroke-width:0.8;" x="476.794091" xlink:href="#m4abd8e331c" y="348.876562"/>
      </g>
     </g>
     <g id="text_20">
      <!-- $\mathdefault{10^{0}}$ -->
      <g transform="translate(464.474091 366.514375)scale(0.14 -0.14)">
       <use transform="translate(0 0.765625)" xlink:href="#DejaVuSans-49"/>
       <use transform="translate(63.623047 0.765625)" xlink:href="#DejaVuSans-48"/>
       <use transform="translate(128.203125 39.046875)scale(0.7)" xlink:href="#DejaVuSans-48"/>
      </g>
     </g>
    </g>
    <g id="xtick_40">
     <g id="line2d_59">
      <g>
       <use style="stroke:#000000;stroke-width:0.8;" x="556.942859" xlink:href="#m4abd8e331c" y="348.876562"/>
      </g>
     </g>
     <g id="text_21">
      <!-- $\mathdefault{10^{1}}$ -->
      <g transform="translate(544.622859 366.514375)scale(0.14 -0.14)">
       <use transform="translate(0 0.684375)" xlink:href="#DejaVuSans-49"/>
       <use transform="translate(63.623047 0.684375)" xlink:href="#DejaVuSans-48"/>
       <use transform="translate(128.203125 38.965625)scale(0.7)" xlink:href="#DejaVuSans-49"/>
      </g>
     </g>
    </g>
    <g id="xtick_41">
     <g id="line2d_60">
      <g>
       <use style="stroke:#000000;stroke-width:0.8;" x="637.091627" xlink:href="#m4abd8e331c" y="348.876562"/>
      </g>
     </g>
     <g id="text_22">
      <!-- $\mathdefault{10^{2}}$ -->
      <g transform="translate(624.771627 366.514375)scale(0.14 -0.14)">
       <use transform="translate(0 0.765625)" xlink:href="#DejaVuSans-49"/>
       <use transform="translate(63.623047 0.765625)" xlink:href="#DejaVuSans-48"/>
       <use transform="translate(128.203125 39.046875)scale(0.7)" xlink:href="#DejaVuSans-50"/>
      </g>
     </g>
    </g>
    <g id="xtick_42">
     <g id="line2d_61">
      <g>
       <use style="stroke:#000000;stroke-width:0.8;" x="717.240395" xlink:href="#m4abd8e331c" y="348.876562"/>
      </g>
     </g>
     <g id="text_23">
      <!-- $\mathdefault{10^{3}}$ -->
      <g transform="translate(704.920395 366.514375)scale(0.14 -0.14)">
       <use transform="translate(0 0.765625)" xlink:href="#DejaVuSans-49"/>
       <use transform="translate(63.623047 0.765625)" xlink:href="#DejaVuSans-48"/>
       <use transform="translate(128.203125 39.046875)scale(0.7)" xlink:href="#DejaVuSans-51"/>
      </g>
     </g>
    </g>
    <g id="xtick_43">
     <g id="line2d_62">
      <g>
       <use style="stroke:#000000;stroke-width:0.8;" x="797.389163" xlink:href="#m4abd8e331c" y="348.876562"/>
      </g>
     </g>
     <g id="text_24">
      <!-- $\mathdefault{10^{4}}$ -->
      <g transform="translate(785.069163 366.514375)scale(0.14 -0.14)">
       <use transform="translate(0 0.684375)" xlink:href="#DejaVuSans-49"/>
       <use transform="translate(63.623047 0.684375)" xlink:href="#DejaVuSans-48"/>
       <use transform="translate(128.203125 38.965625)scale(0.7)" xlink:href="#DejaVuSans-52"/>
      </g>
     </g>
    </g>
    <g id="xtick_44">
     <g id="line2d_63">
      <g>
       <use style="stroke:#000000;stroke-width:0.6;" x="500.921274" xlink:href="#m4c942c31d8" y="348.876562"/>
      </g>
     </g>
    </g>
    <g id="xtick_45">
     <g id="line2d_64">
      <g>
       <use style="stroke:#000000;stroke-width:0.6;" x="515.034772" xlink:href="#m4c942c31d8" y="348.876562"/>
      </g>
     </g>
    </g>
    <g id="xtick_46">
     <g id="line2d_65">
      <g>
       <use style="stroke:#000000;stroke-width:0.6;" x="525.048458" xlink:href="#m4c942c31d8" y="348.876562"/>
      </g>
     </g>
    </g>
    <g id="xtick_47">
     <g id="line2d_66">
      <g>
       <use style="stroke:#000000;stroke-width:0.6;" x="532.815676" xlink:href="#m4c942c31d8" y="348.876562"/>
      </g>
     </g>
    </g>
    <g id="xtick_48">
     <g id="line2d_67">
      <g>
       <use style="stroke:#000000;stroke-width:0.6;" x="539.161955" xlink:href="#m4c942c31d8" y="348.876562"/>
      </g>
     </g>
    </g>
    <g id="xtick_49">
     <g id="line2d_68">
      <g>
       <use style="stroke:#000000;stroke-width:0.6;" x="544.527658" xlink:href="#m4c942c31d8" y="348.876562"/>
      </g>
     </g>
    </g>
    <g id="xtick_50">
     <g id="line2d_69">
      <g>
       <use style="stroke:#000000;stroke-width:0.6;" x="549.175641" xlink:href="#m4c942c31d8" y="348.876562"/>
      </g>
     </g>
    </g>
    <g id="xtick_51">
     <g id="line2d_70">
      <g>
       <use style="stroke:#000000;stroke-width:0.6;" x="553.275452" xlink:href="#m4c942c31d8" y="348.876562"/>
      </g>
     </g>
    </g>
    <g id="xtick_52">
     <g id="line2d_71">
      <g>
       <use style="stroke:#000000;stroke-width:0.6;" x="581.070042" xlink:href="#m4c942c31d8" y="348.876562"/>
      </g>
     </g>
    </g>
    <g id="xtick_53">
     <g id="line2d_72">
      <g>
       <use style="stroke:#000000;stroke-width:0.6;" x="595.18354" xlink:href="#m4c942c31d8" y="348.876562"/>
      </g>
     </g>
    </g>
    <g id="xtick_54">
     <g id="line2d_73">
      <g>
       <use style="stroke:#000000;stroke-width:0.6;" x="605.197226" xlink:href="#m4c942c31d8" y="348.876562"/>
      </g>
     </g>
    </g>
    <g id="xtick_55">
     <g id="line2d_74">
      <g>
       <use style="stroke:#000000;stroke-width:0.6;" x="612.964444" xlink:href="#m4c942c31d8" y="348.876562"/>
      </g>
     </g>
    </g>
    <g id="xtick_56">
     <g id="line2d_75">
      <g>
       <use style="stroke:#000000;stroke-width:0.6;" x="619.310723" xlink:href="#m4c942c31d8" y="348.876562"/>
      </g>
     </g>
    </g>
    <g id="xtick_57">
     <g id="line2d_76">
      <g>
       <use style="stroke:#000000;stroke-width:0.6;" x="624.676426" xlink:href="#m4c942c31d8" y="348.876562"/>
      </g>
     </g>
    </g>
    <g id="xtick_58">
     <g id="line2d_77">
      <g>
       <use style="stroke:#000000;stroke-width:0.6;" x="629.324409" xlink:href="#m4c942c31d8" y="348.876562"/>
      </g>
     </g>
    </g>
    <g id="xtick_59">
     <g id="line2d_78">
      <g>
       <use style="stroke:#000000;stroke-width:0.6;" x="633.424221" xlink:href="#m4c942c31d8" y="348.876562"/>
      </g>
     </g>
    </g>
    <g id="xtick_60">
     <g id="line2d_79">
      <g>
       <use style="stroke:#000000;stroke-width:0.6;" x="661.21881" xlink:href="#m4c942c31d8" y="348.876562"/>
      </g>
     </g>
    </g>
    <g id="xtick_61">
     <g id="line2d_80">
      <g>
       <use style="stroke:#000000;stroke-width:0.6;" x="675.332308" xlink:href="#m4c942c31d8" y="348.876562"/>
      </g>
     </g>
    </g>
    <g id="xtick_62">
     <g id="line2d_81">
      <g>
       <use style="stroke:#000000;stroke-width:0.6;" x="685.345994" xlink:href="#m4c942c31d8" y="348.876562"/>
      </g>
     </g>
    </g>
    <g id="xtick_63">
     <g id="line2d_82">
      <g>
       <use style="stroke:#000000;stroke-width:0.6;" x="693.113212" xlink:href="#m4c942c31d8" y="348.876562"/>
      </g>
     </g>
    </g>
    <g id="xtick_64">
     <g id="line2d_83">
      <g>
       <use style="stroke:#000000;stroke-width:0.6;" x="699.459491" xlink:href="#m4c942c31d8" y="348.876562"/>
      </g>
     </g>
    </g>
    <g id="xtick_65">
     <g id="line2d_84">
      <g>
       <use style="stroke:#000000;stroke-width:0.6;" x="704.825194" xlink:href="#m4c942c31d8" y="348.876562"/>
      </g>
     </g>
    </g>
    <g id="xtick_66">
     <g id="line2d_85">
      <g>
       <use style="stroke:#000000;stroke-width:0.6;" x="709.473177" xlink:href="#m4c942c31d8" y="348.876562"/>
      </g>
     </g>
    </g>
    <g id="xtick_67">
     <g id="line2d_86">
      <g>
       <use style="stroke:#000000;stroke-width:0.6;" x="713.572989" xlink:href="#m4c942c31d8" y="348.876562"/>
      </g>
     </g>
    </g>
    <g id="xtick_68">
     <g id="line2d_87">
      <g>
       <use style="stroke:#000000;stroke-width:0.6;" x="741.367578" xlink:href="#m4c942c31d8" y="348.876562"/>
      </g>
     </g>
    </g>
    <g id="xtick_69">
     <g id="line2d_88">
      <g>
       <use style="stroke:#000000;stroke-width:0.6;" x="755.481076" xlink:href="#m4c942c31d8" y="348.876562"/>
      </g>
     </g>
    </g>
    <g id="xtick_70">
     <g id="line2d_89">
      <g>
       <use style="stroke:#000000;stroke-width:0.6;" x="765.494762" xlink:href="#m4c942c31d8" y="348.876562"/>
      </g>
     </g>
    </g>
    <g id="xtick_71">
     <g id="line2d_90">
      <g>
       <use style="stroke:#000000;stroke-width:0.6;" x="773.26198" xlink:href="#m4c942c31d8" y="348.876562"/>
      </g>
     </g>
    </g>
    <g id="xtick_72">
     <g id="line2d_91">
      <g>
       <use style="stroke:#000000;stroke-width:0.6;" x="779.608259" xlink:href="#m4c942c31d8" y="348.876562"/>
      </g>
     </g>
    </g>
    <g id="xtick_73">
     <g id="line2d_92">
      <g>
       <use style="stroke:#000000;stroke-width:0.6;" x="784.973962" xlink:href="#m4c942c31d8" y="348.876562"/>
      </g>
     </g>
    </g>
    <g id="xtick_74">
     <g id="line2d_93">
      <g>
       <use style="stroke:#000000;stroke-width:0.6;" x="789.621945" xlink:href="#m4c942c31d8" y="348.876562"/>
      </g>
     </g>
    </g>
    <g id="xtick_75">
     <g id="line2d_94">
      <g>
       <use style="stroke:#000000;stroke-width:0.6;" x="793.721757" xlink:href="#m4c942c31d8" y="348.876562"/>
      </g>
     </g>
    </g>
    <g id="xtick_76">
     <g id="line2d_95">
      <g>
       <use style="stroke:#000000;stroke-width:0.6;" x="821.516347" xlink:href="#m4c942c31d8" y="348.876562"/>
      </g>
     </g>
    </g>
    <g id="text_25">
     <!-- Distance between elements -->
     <g transform="translate(528.546264 387.103125)scale(0.18 -0.18)">
      <use xlink:href="#DejaVuSans-68"/>
      <use x="77.001953" xlink:href="#DejaVuSans-105"/>
      <use x="104.785156" xlink:href="#DejaVuSans-115"/>
      <use x="156.884766" xlink:href="#DejaVuSans-116"/>
      <use x="196.09375" xlink:href="#DejaVuSans-97"/>
      <use x="257.373047" xlink:href="#DejaVuSans-110"/>
      <use x="320.751953" xlink:href="#DejaVuSans-99"/>
      <use x="375.732422" xlink:href="#DejaVuSans-101"/>
      <use x="437.255859" xlink:href="#DejaVuSans-32"/>
      <use x="469.042969" xlink:href="#DejaVuSans-98"/>
      <use x="532.519531" xlink:href="#DejaVuSans-101"/>
      <use x="594.042969" xlink:href="#DejaVuSans-116"/>
      <use x="633.251953" xlink:href="#DejaVuSans-119"/>
      <use x="715.039062" xlink:href="#DejaVuSans-101"/>
      <use x="776.5625" xlink:href="#DejaVuSans-101"/>
      <use x="838.085938" xlink:href="#DejaVuSans-110"/>
      <use x="901.464844" xlink:href="#DejaVuSans-32"/>
      <use x="933.251953" xlink:href="#DejaVuSans-101"/>
      <use x="994.775391" xlink:href="#DejaVuSans-108"/>
      <use x="1022.558594" xlink:href="#DejaVuSans-101"/>
      <use x="1084.082031" xlink:href="#DejaVuSans-109"/>
      <use x="1181.494141" xlink:href="#DejaVuSans-101"/>
      <use x="1243.017578" xlink:href="#DejaVuSans-110"/>
      <use x="1306.396484" xlink:href="#DejaVuSans-116"/>
      <use x="1345.605469" xlink:href="#DejaVuSans-115"/>
     </g>
    </g>
   </g>
   <g id="matplotlib.axis_4">
    <g id="ytick_8">
     <g id="line2d_96">
      <g>
       <use style="stroke:#000000;stroke-width:0.8;" x="476.794091" xlink:href="#m35a164ab8a" y="327.132563"/>
      </g>
     </g>
     <g id="text_26">
      <!-- 0.4 -->
      <defs>
       <path d="M 10.59375 35.5 
L 73.1875 35.5 
L 73.1875 27.203125 
L 10.59375 27.203125 
z
" id="DejaVuSans-8722"/>
      </defs>
      <g transform="translate(435.798153 332.451469)scale(0.14 -0.14)">
       <use xlink:href="#DejaVuSans-8722"/>
       <use x="83.789062" xlink:href="#DejaVuSans-48"/>
       <use x="147.412109" xlink:href="#DejaVuSans-46"/>
       <use x="179.199219" xlink:href="#DejaVuSans-52"/>
      </g>
     </g>
    </g>
    <g id="ytick_9">
     <g id="line2d_97">
      <g>
       <use style="stroke:#000000;stroke-width:0.8;" x="476.794091" xlink:href="#m35a164ab8a" y="283.644563"/>
      </g>
     </g>
     <g id="text_27">
      <!-- 0.2 -->
      <g transform="translate(435.798153 288.963469)scale(0.14 -0.14)">
       <use xlink:href="#DejaVuSans-8722"/>
       <use x="83.789062" xlink:href="#DejaVuSans-48"/>
       <use x="147.412109" xlink:href="#DejaVuSans-46"/>
       <use x="179.199219" xlink:href="#DejaVuSans-50"/>
      </g>
     </g>
    </g>
    <g id="ytick_10">
     <g id="line2d_98">
      <g>
       <use style="stroke:#000000;stroke-width:0.8;" x="476.794091" xlink:href="#m35a164ab8a" y="240.156563"/>
      </g>
     </g>
     <g id="text_28">
      <!-- 0.0 -->
      <g transform="translate(447.529716 245.475469)scale(0.14 -0.14)">
       <use xlink:href="#DejaVuSans-48"/>
       <use x="63.623047" xlink:href="#DejaVuSans-46"/>
       <use x="95.410156" xlink:href="#DejaVuSans-48"/>
      </g>
     </g>
    </g>
    <g id="ytick_11">
     <g id="line2d_99">
      <g>
       <use style="stroke:#000000;stroke-width:0.8;" x="476.794091" xlink:href="#m35a164ab8a" y="196.668563"/>
      </g>
     </g>
     <g id="text_29">
      <!-- 0.2 -->
      <g transform="translate(447.529716 201.987469)scale(0.14 -0.14)">
       <use xlink:href="#DejaVuSans-48"/>
       <use x="63.623047" xlink:href="#DejaVuSans-46"/>
       <use x="95.410156" xlink:href="#DejaVuSans-50"/>
      </g>
     </g>
    </g>
    <g id="ytick_12">
     <g id="line2d_100">
      <g>
       <use style="stroke:#000000;stroke-width:0.8;" x="476.794091" xlink:href="#m35a164ab8a" y="153.180563"/>
      </g>
     </g>
     <g id="text_30">
      <!-- 0.4 -->
      <g transform="translate(447.529716 158.499469)scale(0.14 -0.14)">
       <use xlink:href="#DejaVuSans-48"/>
       <use x="63.623047" xlink:href="#DejaVuSans-46"/>
       <use x="95.410156" xlink:href="#DejaVuSans-52"/>
      </g>
     </g>
    </g>
    <g id="ytick_13">
     <g id="line2d_101">
      <g>
       <use style="stroke:#000000;stroke-width:0.8;" x="476.794091" xlink:href="#m35a164ab8a" y="109.692563"/>
      </g>
     </g>
     <g id="text_31">
      <!-- 0.6 -->
      <g transform="translate(447.529716 115.011469)scale(0.14 -0.14)">
       <use xlink:href="#DejaVuSans-48"/>
       <use x="63.623047" xlink:href="#DejaVuSans-46"/>
       <use x="95.410156" xlink:href="#DejaVuSans-54"/>
      </g>
     </g>
    </g>
    <g id="ytick_14">
     <g id="line2d_102">
      <g>
       <use style="stroke:#000000;stroke-width:0.8;" x="476.794091" xlink:href="#m35a164ab8a" y="66.204563"/>
      </g>
     </g>
     <g id="text_32">
      <!-- 0.8 -->
      <g transform="translate(447.529716 71.523469)scale(0.14 -0.14)">
       <use xlink:href="#DejaVuSans-48"/>
       <use x="63.623047" xlink:href="#DejaVuSans-46"/>
       <use x="95.410156" xlink:href="#DejaVuSans-56"/>
      </g>
     </g>
    </g>
    <g id="ytick_15">
     <g id="line2d_103">
      <g>
       <use style="stroke:#000000;stroke-width:0.8;" x="476.794091" xlink:href="#m35a164ab8a" y="22.716563"/>
      </g>
     </g>
     <g id="text_33">
      <!-- 1.0 -->
      <g transform="translate(447.529716 28.035469)scale(0.14 -0.14)">
       <use xlink:href="#DejaVuSans-49"/>
       <use x="63.623047" xlink:href="#DejaVuSans-46"/>
       <use x="95.410156" xlink:href="#DejaVuSans-48"/>
      </g>
     </g>
    </g>
   </g>
   <g id="line2d_104">
    <path clip-path="url(#p80bc9174e5)" d="M 476.794091 119.418683 
L 500.921274 203.673867 
L 515.034772 222.291879 
L 525.048458 229.215591 
L 532.815676 230.940198 
L 539.161955 233.772767 
L 544.527658 235.433655 
L 549.175641 233.354521 
L 553.275452 236.518207 
L 556.942859 235.055518 
L 560.260432 238.027076 
L 566.075278 235.053603 
L 568.654841 236.939858 
L 573.302824 235.47577 
L 575.413056 237.098066 
L 579.284617 236.113148 
L 582.768339 236.772479 
L 587.416322 236.035713 
L 590.202462 236.977545 
L 594.003489 236.248489 
L 598.501113 236.084208 
L 601.529819 237.214447 
L 605.197226 238.616747 
L 609.297037 239.450603 
L 612.261225 237.22438 
L 616.282016 237.964031 
L 619.886078 239.377599 
L 623.667423 239.417124 
L 627.077941 238.381062 
L 630.605836 239.473602 
L 634.189266 236.725998 
L 637.78092 238.237441 
L 641.345799 238.789368 
L 645.136203 237.595091 
L 648.554087 237.842793 
L 652.121182 239.172791 
L 655.765978 235.698118 
L 659.433385 237.041682 
L 663.082466 239.711731 
L 666.534752 237.876138 
L 670.217094 237.582957 
L 673.790297 237.814025 
L 677.360542 238.999934 
L 680.995095 238.780236 
L 684.553865 239.603365 
L 688.105348 239.915302 
L 691.692273 240.703085 
L 695.27255 241.029669 
L 698.874466 238.953989 
L 702.459179 240.879512 
L 706.046658 238.192977 
L 709.646784 239.730919 
L 713.223155 239.834204 
L 716.820171 240.372224 
L 720.399388 239.39423 
L 723.961735 239.451601 
L 727.557328 238.441173 
L 731.144415 239.858485 
L 734.734695 238.133034 
L 738.313548 237.43812 
L 741.885824 239.648609 
L 745.482857 238.992515 
L 749.065111 241.789413 
L 752.641716 240.066211 
L 756.227199 238.83359 
L 759.807049 239.367852 
L 763.387249 239.369666 
L 766.976909 240.675896 
L 770.555807 239.619823 
L 774.141854 239.796615 
L 777.724989 239.339646 
L 781.306555 236.47758 
L 784.889325 240.195352 
L 788.471888 241.285565 
L 792.054194 236.710263 
L 795.636698 238.689869 
L 799.21981 238.44632 
L 802.800584 239.520746 
L 806.384759 238.50447 
L 809.967926 239.308365 
L 813.550592 236.673715 
L 817.131905 238.989353 
L 820.715314 238.813925 
L 824.298202 238.001734 
L 827.880026 242.768438 
L 831.462526 245.128815 
" style="fill:none;stroke:#ff0000;stroke-dasharray:11.1,4.8;stroke-dashoffset:0;stroke-width:3;"/>
   </g>
   <g id="line2d_105">
    <path clip-path="url(#p80bc9174e5)" d="M 476.794091 119.635742 
L 500.921274 204.886738 
L 515.034772 223.219627 
L 525.048458 230.984148 
L 532.815676 231.414461 
L 539.161955 233.547865 
L 544.527658 235.422854 
L 549.175641 232.867134 
L 553.275452 235.830344 
L 556.942859 235.615532 
L 560.260432 235.991846 
L 566.075278 236.068688 
L 568.654841 236.448016 
L 573.302824 235.847384 
L 575.413056 236.159792 
L 579.284617 235.82704 
L 582.768339 237.907336 
L 587.416322 236.811908 
L 590.202462 237.952053 
L 594.003489 235.825061 
L 598.501113 235.578957 
L 601.529819 238.683678 
L 605.197226 237.789385 
L 609.297037 239.560129 
L 612.261225 236.972714 
L 616.282016 238.269369 
L 619.886078 238.819767 
L 623.667423 239.551753 
L 627.077941 238.044107 
L 630.605836 237.71686 
L 634.189266 238.410634 
L 637.78092 238.529866 
L 641.345799 239.862096 
L 645.136203 240.194662 
L 648.554087 239.9112 
L 652.121182 237.145803 
L 655.765978 236.837448 
L 659.433385 237.07879 
L 663.082466 238.549165 
L 666.534752 238.320924 
L 670.217094 237.815762 
L 673.790297 237.956999 
L 677.360542 240.252481 
L 680.995095 238.521426 
L 684.553865 240.316233 
L 688.105348 240.958306 
L 691.692273 240.983923 
L 695.27255 240.890834 
L 698.874466 239.359891 
L 702.459179 239.475011 
L 706.046658 240.842558 
L 709.646784 239.691014 
L 713.223155 239.212372 
L 716.820171 240.019861 
L 720.399388 238.785965 
L 723.961735 240.016684 
L 727.557328 238.78752 
L 731.144415 239.259859 
L 734.734695 238.628176 
L 738.313548 238.62398 
L 741.885824 239.785967 
L 745.482857 238.374745 
L 749.065111 241.875101 
L 752.641716 239.614906 
L 756.227199 238.993455 
L 759.807049 239.163348 
L 763.387249 242.252172 
L 766.976909 243.343117 
L 770.555807 244.488994 
L 774.141854 246.42936 
L 777.724989 248.607657 
L 781.306555 248.28068 
L 784.889325 252.704872 
L 788.471888 252.337372 
L 792.054194 252.051698 
L 795.636698 249.192686 
L 799.21981 249.521501 
L 802.800584 251.859128 
L 806.384759 255.141564 
L 809.967926 254.065454 
L 813.550592 258.953201 
L 817.131905 256.301188 
L 820.715314 255.720771 
L 824.298202 272.443156 
L 827.880026 321.743338 
L 830.438057 391.846563 
" style="fill:none;stroke:#0000ff;stroke-dasharray:11.1,4.8;stroke-dashoffset:0;stroke-width:3;"/>
   </g>
   <g id="line2d_106">
    <path clip-path="url(#p80bc9174e5)" d="M 476.794091 119.342832 
L 500.921274 204.365875 
L 515.034772 224.279779 
L 525.048458 232.323699 
L 532.815676 234.847063 
L 539.161955 229.804841 
L 544.527658 232.328736 
L 549.175641 231.872614 
L 553.275452 235.442329 
L 556.942859 235.226748 
L 560.260432 238.353741 
L 566.075278 240.060062 
L 568.654841 232.498984 
L 573.302824 234.304011 
L 575.413056 237.31687 
L 579.284617 238.815162 
L 582.768339 234.150613 
L 587.416322 237.375659 
L 590.202462 238.916373 
L 594.003489 236.539789 
L 598.501113 234.67693 
L 601.529819 239.867838 
L 605.197226 238.902088 
L 609.297037 240.326607 
L 612.261225 238.252503 
L 616.282016 241.497984 
L 619.886078 238.689793 
L 623.667423 236.617023 
L 627.077941 235.199283 
L 630.605836 239.673441 
L 634.189266 237.388363 
L 637.78092 241.902314 
L 641.345799 242.444099 
L 645.136203 243.220323 
L 648.554087 238.447442 
L 652.121182 238.364287 
L 655.765978 239.119317 
L 659.433385 233.87091 
L 663.082466 237.59336 
L 666.534752 237.059954 
L 670.217094 238.207861 
L 673.790297 240.744357 
L 677.360542 239.977008 
L 680.995095 238.006988 
L 684.553865 238.717403 
L 688.105348 238.667592 
L 691.692273 243.250333 
L 695.27255 241.897808 
L 698.874466 235.507752 
L 702.459179 241.67406 
L 706.046658 237.542602 
L 709.646784 239.317797 
L 713.223155 242.657396 
L 716.820171 242.248734 
L 720.399388 237.562227 
L 723.961735 243.461747 
L 727.557328 236.524132 
L 731.144415 237.834716 
L 734.734695 237.306973 
L 738.313548 241.023583 
L 741.885824 242.790413 
L 745.482857 241.383716 
L 749.065111 240.29023 
L 752.641716 242.440266 
L 756.227199 236.85611 
L 759.807049 235.107203 
L 763.387249 238.595234 
L 766.976909 240.360579 
L 770.555807 238.266276 
L 774.141854 240.088487 
L 777.724989 241.35392 
L 781.306555 237.667704 
L 784.889325 240.590068 
L 788.471888 241.221268 
L 792.054194 236.900164 
L 795.636698 237.893461 
L 799.21981 238.557661 
L 802.800584 240.914294 
L 806.384759 239.053901 
L 809.967926 241.412253 
L 813.550592 240.583261 
L 817.131905 239.171135 
L 820.715314 240.825657 
L 824.298202 238.740706 
L 827.880026 238.184171 
L 831.462526 244.856282 
" style="fill:none;stroke:#008000;stroke-dasharray:11.1,4.8;stroke-dashoffset:0;stroke-width:3;"/>
   </g>
   <g id="patch_8">
    <path d="M 476.794091 348.876562 
L 476.794091 22.716563 
" style="fill:none;stroke:#000000;stroke-linecap:square;stroke-linejoin:miter;stroke-width:3;"/>
   </g>
   <g id="patch_9">
    <path d="M 831.885 348.876562 
L 831.885 22.716563 
" style="fill:none;stroke:#000000;stroke-linecap:square;stroke-linejoin:miter;stroke-width:3;"/>
   </g>
   <g id="patch_10">
    <path d="M 476.794091 348.876562 
L 831.885 348.876562 
" style="fill:none;stroke:#000000;stroke-linecap:square;stroke-linejoin:miter;stroke-width:3;"/>
   </g>
   <g id="patch_11">
    <path d="M 476.794091 22.716563 
L 831.885 22.716563 
" style="fill:none;stroke:#000000;stroke-linecap:square;stroke-linejoin:miter;stroke-width:3;"/>
   </g>
   <g id="text_34">
    <!-- $I$ - lower bound -->
    <defs>
     <path d="M 4.890625 31.390625 
L 31.203125 31.390625 
L 31.203125 23.390625 
L 4.890625 23.390625 
z
" id="DejaVuSans-45"/>
    </defs>
    <g transform="translate(571.839545 16.716563)scale(0.22 -0.22)">
     <use transform="translate(0 0.015625)" xlink:href="#DejaVuSans-Oblique-73"/>
     <use transform="translate(29.492188 0.015625)" xlink:href="#DejaVuSans-32"/>
     <use transform="translate(61.279297 0.015625)" xlink:href="#DejaVuSans-45"/>
     <use transform="translate(97.363281 0.015625)" xlink:href="#DejaVuSans-32"/>
     <use transform="translate(129.150391 0.015625)" xlink:href="#DejaVuSans-108"/>
     <use transform="translate(156.933594 0.015625)" xlink:href="#DejaVuSans-111"/>
     <use transform="translate(218.115234 0.015625)" xlink:href="#DejaVuSans-119"/>
     <use transform="translate(299.902344 0.015625)" xlink:href="#DejaVuSans-101"/>
     <use transform="translate(361.425781 0.015625)" xlink:href="#DejaVuSans-114"/>
     <use transform="translate(402.539062 0.015625)" xlink:href="#DejaVuSans-32"/>
     <use transform="translate(434.326172 0.015625)" xlink:href="#DejaVuSans-98"/>
     <use transform="translate(497.802734 0.015625)" xlink:href="#DejaVuSans-111"/>
     <use transform="translate(558.984375 0.015625)" xlink:href="#DejaVuSans-117"/>
     <use transform="translate(622.363281 0.015625)" xlink:href="#DejaVuSans-110"/>
     <use transform="translate(685.742188 0.015625)" xlink:href="#DejaVuSans-100"/>
    </g>
   </g>
   <g id="legend_2">
    <g id="line2d_107">
     <path d="M 491.685 41.054375 
L 519.685 41.054375 
" style="fill:none;stroke:#ff0000;stroke-dasharray:11.1,4.8;stroke-dashoffset:0;stroke-width:3;"/>
    </g>
    <g id="line2d_108"/>
    <g id="text_35">
     <!-- $I_{sh}$ (naive) -->
     <g transform="translate(530.885 45.954375)scale(0.14 -0.14)">
      <use transform="translate(0 0.015625)" xlink:href="#DejaVuSans-Oblique-73"/>
      <use transform="translate(29.492188 -16.390625)scale(0.7)" xlink:href="#DejaVuSans-Oblique-115"/>
      <use transform="translate(65.961914 -16.390625)scale(0.7)" xlink:href="#DejaVuSans-Oblique-104"/>
      <use transform="translate(113.061523 0.015625)" xlink:href="#DejaVuSans-32"/>
      <use transform="translate(144.848633 0.015625)" xlink:href="#DejaVuSans-40"/>
      <use transform="translate(183.862305 0.015625)" xlink:href="#DejaVuSans-110"/>
      <use transform="translate(247.241211 0.015625)" xlink:href="#DejaVuSans-97"/>
      <use transform="translate(308.520508 0.015625)" xlink:href="#DejaVuSans-105"/>
      <use transform="translate(336.303711 0.015625)" xlink:href="#DejaVuSans-118"/>
      <use transform="translate(395.483398 0.015625)" xlink:href="#DejaVuSans-101"/>
      <use transform="translate(457.006836 0.015625)" xlink:href="#DejaVuSans-41"/>
     </g>
    </g>
    <g id="line2d_109">
     <path d="M 491.685 61.605938 
L 519.685 61.605938 
" style="fill:none;stroke:#0000ff;stroke-dasharray:11.1,4.8;stroke-dashoffset:0;stroke-width:3;"/>
    </g>
    <g id="line2d_110"/>
    <g id="text_36">
     <!-- $I$ (naive) of temporally shuffled sequence -->
     <g transform="translate(530.885 66.505938)scale(0.14 -0.14)">
      <use transform="translate(0 0.015625)" xlink:href="#DejaVuSans-Oblique-73"/>
      <use transform="translate(29.492188 0.015625)" xlink:href="#DejaVuSans-32"/>
      <use transform="translate(61.279297 0.015625)" xlink:href="#DejaVuSans-40"/>
      <use transform="translate(100.292969 0.015625)" xlink:href="#DejaVuSans-110"/>
      <use transform="translate(163.671875 0.015625)" xlink:href="#DejaVuSans-97"/>
      <use transform="translate(224.951172 0.015625)" xlink:href="#DejaVuSans-105"/>
      <use transform="translate(252.734375 0.015625)" xlink:href="#DejaVuSans-118"/>
      <use transform="translate(311.914062 0.015625)" xlink:href="#DejaVuSans-101"/>
      <use transform="translate(373.4375 0.015625)" xlink:href="#DejaVuSans-41"/>
      <use transform="translate(412.451172 0.015625)" xlink:href="#DejaVuSans-32"/>
      <use transform="translate(444.238281 0.015625)" xlink:href="#DejaVuSans-111"/>
      <use transform="translate(505.419922 0.015625)" xlink:href="#DejaVuSans-102"/>
      <use transform="translate(540.625 0.015625)" xlink:href="#DejaVuSans-32"/>
      <use transform="translate(572.412109 0.015625)" xlink:href="#DejaVuSans-116"/>
      <use transform="translate(611.621094 0.015625)" xlink:href="#DejaVuSans-101"/>
      <use transform="translate(673.144531 0.015625)" xlink:href="#DejaVuSans-109"/>
      <use transform="translate(770.556641 0.015625)" xlink:href="#DejaVuSans-112"/>
      <use transform="translate(834.033203 0.015625)" xlink:href="#DejaVuSans-111"/>
      <use transform="translate(895.214844 0.015625)" xlink:href="#DejaVuSans-114"/>
      <use transform="translate(936.328125 0.015625)" xlink:href="#DejaVuSans-97"/>
      <use transform="translate(997.607422 0.015625)" xlink:href="#DejaVuSans-108"/>
      <use transform="translate(1025.390625 0.015625)" xlink:href="#DejaVuSans-108"/>
      <use transform="translate(1053.173828 0.015625)" xlink:href="#DejaVuSans-121"/>
      <use transform="translate(1112.353516 0.015625)" xlink:href="#DejaVuSans-32"/>
      <use transform="translate(1144.140625 0.015625)" xlink:href="#DejaVuSans-115"/>
      <use transform="translate(1196.240234 0.015625)" xlink:href="#DejaVuSans-104"/>
      <use transform="translate(1259.619141 0.015625)" xlink:href="#DejaVuSans-117"/>
      <use transform="translate(1322.998047 0.015625)" xlink:href="#DejaVuSans-102"/>
      <use transform="translate(1358.203125 0.015625)" xlink:href="#DejaVuSans-102"/>
      <use transform="translate(1393.408203 0.015625)" xlink:href="#DejaVuSans-108"/>
      <use transform="translate(1421.191406 0.015625)" xlink:href="#DejaVuSans-101"/>
      <use transform="translate(1482.714844 0.015625)" xlink:href="#DejaVuSans-100"/>
      <use transform="translate(1546.191406 0.015625)" xlink:href="#DejaVuSans-32"/>
      <use transform="translate(1577.978516 0.015625)" xlink:href="#DejaVuSans-115"/>
      <use transform="translate(1630.078125 0.015625)" xlink:href="#DejaVuSans-101"/>
      <use transform="translate(1691.601562 0.015625)" xlink:href="#DejaVuSans-113"/>
      <use transform="translate(1755.078125 0.015625)" xlink:href="#DejaVuSans-117"/>
      <use transform="translate(1818.457031 0.015625)" xlink:href="#DejaVuSans-101"/>
      <use transform="translate(1879.980469 0.015625)" xlink:href="#DejaVuSans-110"/>
      <use transform="translate(1943.359375 0.015625)" xlink:href="#DejaVuSans-99"/>
      <use transform="translate(1998.339844 0.015625)" xlink:href="#DejaVuSans-101"/>
     </g>
    </g>
    <g id="line2d_111">
     <path d="M 491.685 82.18375 
L 519.685 82.18375 
" style="fill:none;stroke:#008000;stroke-dasharray:11.1,4.8;stroke-dashoffset:0;stroke-width:3;"/>
    </g>
    <g id="line2d_112"/>
    <g id="text_37">
     <!-- Expected MI -->
     <g transform="translate(530.885 87.08375)scale(0.14 -0.14)">
      <use xlink:href="#DejaVuSans-69"/>
      <use x="63.183594" xlink:href="#DejaVuSans-120"/>
      <use x="122.363281" xlink:href="#DejaVuSans-112"/>
      <use x="185.839844" xlink:href="#DejaVuSans-101"/>
      <use x="247.363281" xlink:href="#DejaVuSans-99"/>
      <use x="302.34375" xlink:href="#DejaVuSans-116"/>
      <use x="341.552734" xlink:href="#DejaVuSans-101"/>
      <use x="403.076172" xlink:href="#DejaVuSans-100"/>
      <use x="466.552734" xlink:href="#DejaVuSans-32"/>
      <use x="498.339844" xlink:href="#DejaVuSans-77"/>
      <use x="584.619141" xlink:href="#DejaVuSans-73"/>
     </g>
    </g>
   </g>
  </g>
 </g>
 <defs>
  <clipPath id="p4dd7483d83">
   <rect height="326.16" width="355.090909" x="50.685" y="22.716563"/>
  </clipPath>
  <clipPath id="p80bc9174e5">
   <rect height="326.16" width="355.090909" x="476.794091" y="22.716563"/>
  </clipPath>
 </defs>
</svg>
